<?xml version="1.0" encoding="UTF-8" standalone="no"?>
<!DOCTYPE svg PUBLIC "-//W3C//DTD SVG 1.1//EN"
 "http://www.w3.org/Graphics/SVG/1.1/DTD/svg11.dtd">
<!-- Generated by graphviz version 2.40.1 (20161225.0304)
 -->
<!-- Title: crag Pages: 1 -->
<svg width="3858pt" height="2001pt"
 viewBox="0.00 0.00 3857.54 2001.00" xmlns="http://www.w3.org/2000/svg" xmlns:xlink="http://www.w3.org/1999/xlink">
<g id="graph0" class="graph" transform="scale(1 1) rotate(0) translate(4 1997)">
<title>crag</title>
<polygon fill="#ffffff" stroke="transparent" points="-4,4 -4,-1997 3853.5355,-1997 3853.5355,4 -4,4"/>
<!-- start -->
<g id="node1" class="node">
<title>start</title>
<polygon fill="none" stroke="#000000" points="137,-1182 0,-1182 0,-1110 137,-1110 137,-1182"/>
<text text-anchor="middle" x="68.5" y="-1159.05" font-family="Helvetica,sans-Serif" font-size="14.50" fill="#000000">Potential</text>
<text text-anchor="middle" x="68.5" y="-1141.65" font-family="Helvetica,sans-Serif" font-size="14.50" fill="#000000">donors</text>
<text text-anchor="middle" x="68.5" y="-1124.25" font-family="Helvetica,sans-Serif" font-size="14.50" fill="#000000">N = number_donors</text>
</g>
<!-- no_screen -->
<g id="node2" class="node">
<title>no_screen</title>
<polygon fill="#98fb98" stroke="#000000" points="311,-1262 174,-1262 174,-1190 311,-1190 311,-1262"/>
<text text-anchor="middle" x="242.5" y="-1239.05" font-family="Helvetica,sans-Serif" font-size="14.50" fill="#000000">No CrAg</text>
<text text-anchor="middle" x="242.5" y="-1221.65" font-family="Helvetica,sans-Serif" font-size="14.50" fill="#000000">screening</text>
<text text-anchor="middle" x="242.5" y="-1204.25" font-family="Helvetica,sans-Serif" font-size="14.50" fill="#000000">ΔC = $0</text>
</g>
<!-- start&#45;&gt;no_screen -->
<g id="edge1" class="edge">
<title>start&#45;&gt;no_screen</title>
<path fill="none" stroke="#000000" d="M137.2694,-1177.6181C146.3174,-1181.7781 155.6409,-1186.0648 164.8241,-1190.2869"/>
<polygon fill="#000000" stroke="#000000" points="163.3975,-1193.4832 173.9452,-1194.4806 166.3216,-1187.1232 163.3975,-1193.4832"/>
</g>
<!-- screen -->
<g id="node3" class="node">
<title>screen</title>
<polygon fill="#98fb98" stroke="#000000" points="311,-1103 174,-1103 174,-1031 311,-1031 311,-1103"/>
<text text-anchor="middle" x="242.5" y="-1080.05" font-family="Helvetica,sans-Serif" font-size="14.50" fill="#000000">CrAg</text>
<text text-anchor="middle" x="242.5" y="-1062.65" font-family="Helvetica,sans-Serif" font-size="14.50" fill="#000000">screening</text>
<text text-anchor="middle" x="242.5" y="-1045.25" font-family="Helvetica,sans-Serif" font-size="14.50" fill="#000000">ΔC = $cost_test</text>
</g>
<!-- start&#45;&gt;screen -->
<g id="edge2" class="edge">
<title>start&#45;&gt;screen</title>
<path fill="none" stroke="#000000" d="M137.2694,-1114.7771C146.3174,-1110.6691 155.6409,-1106.436 164.8241,-1102.2666"/>
<polygon fill="#000000" stroke="#000000" points="166.2867,-1105.4465 173.9452,-1098.1254 163.3928,-1099.0727 166.2867,-1105.4465"/>
</g>
<!-- used_ns -->
<g id="node4" class="node">
<title>used_ns</title>
<ellipse fill="#ffffe0" stroke="#000000" cx="695.297" cy="-1398" rx="50.5" ry="50.5"/>
<text text-anchor="middle" x="695.297" y="-1402.35" font-family="Helvetica,sans-Serif" font-size="14.50" fill="#000000">Organs</text>
<text text-anchor="middle" x="695.297" y="-1384.95" font-family="Helvetica,sans-Serif" font-size="14.50" fill="#000000">used</text>
</g>
<!-- no_screen&#45;&gt;used_ns -->
<g id="edge3" class="edge">
<title>no_screen&#45;&gt;used_ns</title>
<path fill="none" stroke="#000000" d="M308.1111,-1262.0067C346.7145,-1282.259 396.9137,-1307.009 443.297,-1325 507.5933,-1349.9391 583.9831,-1370.9134 635.6713,-1383.8892"/>
<polygon fill="#000000" stroke="#000000" points="635.1195,-1387.3586 645.6687,-1386.3766 636.8096,-1380.5656 635.1195,-1387.3586"/>
<text text-anchor="middle" x="377.1485" y="-1320.5" font-family="Helvetica,sans-Serif" font-size="15.00" fill="#000000">p = p_usage</text>
</g>
<!-- notused_ns -->
<g id="node5" class="node">
<title>notused_ns</title>
<polygon fill="#add8e6" stroke="#000000" points="695.297,-1316 443.297,-1226 695.297,-1136 947.297,-1226 695.297,-1316"/>
<text text-anchor="middle" x="695.297" y="-1247.75" font-family="Helvetica,sans-Serif" font-size="14.50" fill="#000000">Organs</text>
<text text-anchor="middle" x="695.297" y="-1230.35" font-family="Helvetica,sans-Serif" font-size="14.50" fill="#000000">not used</text>
<text text-anchor="middle" x="695.297" y="-1212.95" font-family="Helvetica,sans-Serif" font-size="14.50" fill="#000000">ΔC = $cost_nonacceptance</text>
<text text-anchor="middle" x="695.297" y="-1195.55" font-family="Helvetica,sans-Serif" font-size="14.50" fill="#000000">ΔQ = q_noacceptance</text>
</g>
<!-- no_screen&#45;&gt;notused_ns -->
<g id="edge4" class="edge">
<title>no_screen&#45;&gt;notused_ns</title>
<path fill="none" stroke="#000000" d="M311.2701,-1226C344.9657,-1226 387.9094,-1226 432.7965,-1226"/>
<polygon fill="#000000" stroke="#000000" points="433.0112,-1229.5001 443.0112,-1226 433.0112,-1222.5001 433.0112,-1229.5001"/>
<text text-anchor="middle" x="377.1485" y="-1230.5" font-family="Helvetica,sans-Serif" font-size="15.00" fill="#000000">p = 1&#45;p_usage</text>
</g>
<!-- used_s -->
<g id="node6" class="node">
<title>used_s</title>
<ellipse fill="#ffffe0" stroke="#000000" cx="695.297" cy="-1067" rx="50.5" ry="50.5"/>
<text text-anchor="middle" x="695.297" y="-1071.35" font-family="Helvetica,sans-Serif" font-size="14.50" fill="#000000">Organs</text>
<text text-anchor="middle" x="695.297" y="-1053.95" font-family="Helvetica,sans-Serif" font-size="14.50" fill="#000000">used</text>
</g>
<!-- screen&#45;&gt;used_s -->
<g id="edge11" class="edge">
<title>screen&#45;&gt;used_s</title>
<path fill="none" stroke="#000000" d="M311.2701,-1067C399.2616,-1067 550.3176,-1067 634.361,-1067"/>
<polygon fill="#000000" stroke="#000000" points="634.518,-1070.5001 644.518,-1067 634.5179,-1063.5001 634.518,-1070.5001"/>
<text text-anchor="middle" x="377.1485" y="-1071.5" font-family="Helvetica,sans-Serif" font-size="15.00" fill="#000000">p = p_usage</text>
</g>
<!-- notused_s -->
<g id="node7" class="node">
<title>notused_s</title>
<polygon fill="#add8e6" stroke="#000000" points="695.297,-998 443.297,-908 695.297,-818 947.297,-908 695.297,-998"/>
<text text-anchor="middle" x="695.297" y="-929.75" font-family="Helvetica,sans-Serif" font-size="14.50" fill="#000000">Organs</text>
<text text-anchor="middle" x="695.297" y="-912.35" font-family="Helvetica,sans-Serif" font-size="14.50" fill="#000000">not used</text>
<text text-anchor="middle" x="695.297" y="-894.95" font-family="Helvetica,sans-Serif" font-size="14.50" fill="#000000">ΔC = $cost_nonacceptance</text>
<text text-anchor="middle" x="695.297" y="-877.55" font-family="Helvetica,sans-Serif" font-size="14.50" fill="#000000">ΔQ = q_noacceptance</text>
</g>
<!-- screen&#45;&gt;notused_s -->
<g id="edge12" class="edge">
<title>screen&#45;&gt;notused_s</title>
<path fill="none" stroke="#000000" d="M311.2701,-1042.8513C376.5285,-1019.9358 476.4747,-984.8396 558.0461,-956.1958"/>
<polygon fill="#000000" stroke="#000000" points="559.6236,-959.3514 567.8992,-952.7358 557.3044,-952.7468 559.6236,-959.3514"/>
<text text-anchor="middle" x="377.1485" y="-1041.5" font-family="Helvetica,sans-Serif" font-size="15.00" fill="#000000">p = 1&#45;p_usage</text>
</g>
<!-- donor_pos_ns -->
<g id="node8" class="node">
<title>donor_pos_ns</title>
<ellipse fill="#ffffe0" stroke="#000000" cx="1223.442" cy="-1705" rx="50.5" ry="50.5"/>
<text text-anchor="middle" x="1223.442" y="-1718.05" font-family="Helvetica,sans-Serif" font-size="14.50" fill="#000000">Donor</text>
<text text-anchor="middle" x="1223.442" y="-1700.65" font-family="Helvetica,sans-Serif" font-size="14.50" fill="#000000">with</text>
<text text-anchor="middle" x="1223.442" y="-1683.25" font-family="Helvetica,sans-Serif" font-size="14.50" fill="#000000">cryptococcus</text>
</g>
<!-- used_ns&#45;&gt;donor_pos_ns -->
<g id="edge5" class="edge">
<title>used_ns&#45;&gt;donor_pos_ns</title>
<path fill="none" stroke="#000000" d="M738.9667,-1423.3843C835.5042,-1479.4996 1066.7285,-1613.9056 1170.9396,-1674.4814"/>
<polygon fill="#000000" stroke="#000000" points="1169.3169,-1677.5865 1179.7213,-1679.5861 1172.8347,-1671.5346 1169.3169,-1677.5865"/>
<text text-anchor="middle" x="1060.1195" y="-1664.5" font-family="Helvetica,sans-Serif" font-size="15.00" fill="#000000">p = p_donor_cryptococcus</text>
</g>
<!-- donor_neg_ns -->
<g id="node9" class="node">
<title>donor_neg_ns</title>
<ellipse fill="#ffffe0" stroke="#000000" cx="1223.442" cy="-1398" rx="50.5" ry="50.5"/>
<text text-anchor="middle" x="1223.442" y="-1411.05" font-family="Helvetica,sans-Serif" font-size="14.50" fill="#000000">Donor</text>
<text text-anchor="middle" x="1223.442" y="-1393.65" font-family="Helvetica,sans-Serif" font-size="14.50" fill="#000000">without</text>
<text text-anchor="middle" x="1223.442" y="-1376.25" font-family="Helvetica,sans-Serif" font-size="14.50" fill="#000000">cryptococcus</text>
</g>
<!-- used_ns&#45;&gt;donor_neg_ns -->
<g id="edge6" class="edge">
<title>used_ns&#45;&gt;donor_neg_ns</title>
<path fill="none" stroke="#000000" d="M745.9378,-1398C843.5097,-1398 1057.1945,-1398 1162.4239,-1398"/>
<polygon fill="#000000" stroke="#000000" points="1162.5672,-1401.5001 1172.5672,-1398 1162.5671,-1394.5001 1162.5672,-1401.5001"/>
<text text-anchor="middle" x="1060.1195" y="-1402.5" font-family="Helvetica,sans-Serif" font-size="15.00" fill="#000000">p = 1&#45;p_donor_cryptococcus</text>
</g>
<!-- donor_pos_s -->
<g id="node10" class="node">
<title>donor_pos_s</title>
<ellipse fill="#ffffe0" stroke="#000000" cx="1223.442" cy="-1067" rx="50.5" ry="50.5"/>
<text text-anchor="middle" x="1223.442" y="-1080.05" font-family="Helvetica,sans-Serif" font-size="14.50" fill="#000000">Donor</text>
<text text-anchor="middle" x="1223.442" y="-1062.65" font-family="Helvetica,sans-Serif" font-size="14.50" fill="#000000">with</text>
<text text-anchor="middle" x="1223.442" y="-1045.25" font-family="Helvetica,sans-Serif" font-size="14.50" fill="#000000">cryptococcus</text>
</g>
<!-- used_s&#45;&gt;donor_pos_s -->
<g id="edge13" class="edge">
<title>used_s&#45;&gt;donor_pos_s</title>
<path fill="none" stroke="#000000" d="M745.9378,-1067C843.5097,-1067 1057.1945,-1067 1162.4239,-1067"/>
<polygon fill="#000000" stroke="#000000" points="1162.5672,-1070.5001 1172.5672,-1067 1162.5671,-1063.5001 1162.5672,-1070.5001"/>
<text text-anchor="middle" x="1060.1195" y="-1071.5" font-family="Helvetica,sans-Serif" font-size="15.00" fill="#000000">p = p_donor_cryptococcus</text>
</g>
<!-- donor_neg_s -->
<g id="node11" class="node">
<title>donor_neg_s</title>
<ellipse fill="#ffffe0" stroke="#000000" cx="1223.442" cy="-546" rx="50.5" ry="50.5"/>
<text text-anchor="middle" x="1223.442" y="-559.05" font-family="Helvetica,sans-Serif" font-size="14.50" fill="#000000">Donor</text>
<text text-anchor="middle" x="1223.442" y="-541.65" font-family="Helvetica,sans-Serif" font-size="14.50" fill="#000000">without</text>
<text text-anchor="middle" x="1223.442" y="-524.25" font-family="Helvetica,sans-Serif" font-size="14.50" fill="#000000">cryptococcus</text>
</g>
<!-- used_s&#45;&gt;donor_neg_s -->
<g id="edge14" class="edge">
<title>used_s&#45;&gt;donor_neg_s</title>
<path fill="none" stroke="#000000" d="M745.9937,-1066.2438C800.588,-1063.0345 887.6245,-1050.73 947.297,-1007 1088.9446,-903.1961 1171.5851,-702.8081 1205.4121,-603.9892"/>
<polygon fill="#000000" stroke="#000000" points="1208.7457,-605.0567 1208.6293,-594.4625 1202.1137,-602.817 1208.7457,-605.0567"/>
<text text-anchor="middle" x="1060.1195" y="-994.5" font-family="Helvetica,sans-Serif" font-size="15.00" fill="#000000">p = 1&#45;p_donor_cryptococcus</text>
</g>
<!-- inf_yes_agpos_ns -->
<g id="node12" class="node">
<title>inf_yes_agpos_ns</title>
<polygon fill="#ffe4e1" stroke="#000000" points="1749.9235,-1993 1497.9235,-1903 1749.9235,-1813 2001.9235,-1903 1749.9235,-1993"/>
<text text-anchor="middle" x="1749.9235" y="-1924.75" font-family="Helvetica,sans-Serif" font-size="14.50" fill="#000000">Recipient</text>
<text text-anchor="middle" x="1749.9235" y="-1907.35" font-family="Helvetica,sans-Serif" font-size="14.50" fill="#000000">cryptococcosis</text>
<text text-anchor="middle" x="1749.9235" y="-1889.95" font-family="Helvetica,sans-Serif" font-size="14.50" fill="#000000">ΔC = $cost_disease</text>
<text text-anchor="middle" x="1749.9235" y="-1872.55" font-family="Helvetica,sans-Serif" font-size="14.50" fill="#000000">ΔQ = q_nocryptococcus&#45;q_loss_cryptococcus</text>
</g>
<!-- donor_pos_ns&#45;&gt;inf_yes_agpos_ns -->
<g id="edge7" class="edge">
<title>donor_pos_ns&#45;&gt;inf_yes_agpos_ns</title>
<path fill="none" stroke="#000000" d="M1271.0923,-1722.9204C1348.5838,-1752.0635 1504.6009,-1810.7387 1617.5316,-1853.2099"/>
<polygon fill="#000000" stroke="#000000" points="1616.359,-1856.5081 1626.951,-1856.7523 1618.8231,-1849.9562 1616.359,-1856.5081"/>
<text text-anchor="middle" x="1385.9328" y="-1802.5" font-family="Helvetica,sans-Serif" font-size="15.00" fill="#000000">p = p_transmission</text>
</g>
<!-- inf_no_agpos_ns -->
<g id="node14" class="node">
<title>inf_no_agpos_ns</title>
<polygon fill="none" stroke="#000000" points="1749.9235,-1795 1497.9235,-1705 1749.9235,-1615 2001.9235,-1705 1749.9235,-1795"/>
<text text-anchor="middle" x="1749.9235" y="-1726.75" font-family="Helvetica,sans-Serif" font-size="14.50" fill="#000000">No</text>
<text text-anchor="middle" x="1749.9235" y="-1709.35" font-family="Helvetica,sans-Serif" font-size="14.50" fill="#000000">cryptococcus</text>
<text text-anchor="middle" x="1749.9235" y="-1691.95" font-family="Helvetica,sans-Serif" font-size="14.50" fill="#000000">ΔC = $cost_nocryptococcus</text>
<text text-anchor="middle" x="1749.9235" y="-1674.55" font-family="Helvetica,sans-Serif" font-size="14.50" fill="#000000">ΔQ = q_nocryptococcus</text>
</g>
<!-- donor_pos_ns&#45;&gt;inf_no_agpos_ns -->
<g id="edge8" class="edge">
<title>donor_pos_ns&#45;&gt;inf_no_agpos_ns</title>
<path fill="none" stroke="#000000" d="M1274.4016,-1705C1324.8866,-1705 1406.2161,-1705 1487.4484,-1705"/>
<polygon fill="#000000" stroke="#000000" points="1487.8684,-1708.5001 1497.8684,-1705 1487.8683,-1701.5001 1487.8684,-1708.5001"/>
<text text-anchor="middle" x="1385.9328" y="-1709.5" font-family="Helvetica,sans-Serif" font-size="15.00" fill="#000000">p = 1&#45;p_transmission</text>
</g>
<!-- inf_yes_agneg_ns -->
<g id="node13" class="node">
<title>inf_yes_agneg_ns</title>
<polygon fill="#ffe4e1" stroke="#000000" points="1749.9235,-1597 1497.9235,-1507 1749.9235,-1417 2001.9235,-1507 1749.9235,-1597"/>
<text text-anchor="middle" x="1749.9235" y="-1528.75" font-family="Helvetica,sans-Serif" font-size="14.50" fill="#000000">Recipient</text>
<text text-anchor="middle" x="1749.9235" y="-1511.35" font-family="Helvetica,sans-Serif" font-size="14.50" fill="#000000">cryptococcosis</text>
<text text-anchor="middle" x="1749.9235" y="-1493.95" font-family="Helvetica,sans-Serif" font-size="14.50" fill="#000000">ΔC = $cost_disease</text>
<text text-anchor="middle" x="1749.9235" y="-1476.55" font-family="Helvetica,sans-Serif" font-size="14.50" fill="#000000">ΔQ = q_nocryptococcus&#45;q_loss_cryptococcus</text>
</g>
<!-- donor_neg_ns&#45;&gt;inf_yes_agneg_ns -->
<g id="edge10" class="edge">
<title>donor_neg_ns&#45;&gt;inf_yes_agneg_ns</title>
<path fill="none" stroke="#000000" d="M1272.9721,-1408.2545C1342.7241,-1422.6956 1473.3272,-1449.7349 1580.2525,-1471.8722"/>
<polygon fill="#000000" stroke="#000000" points="1579.6929,-1475.3305 1590.1948,-1473.9306 1581.1121,-1468.4759 1579.6929,-1475.3305"/>
<text text-anchor="middle" x="1385.9328" y="-1453.5" font-family="Helvetica,sans-Serif" font-size="15.00" fill="#000000">p = p_spont_cryptococcus</text>
</g>
<!-- inf_no_agneg_ns -->
<g id="node15" class="node">
<title>inf_no_agneg_ns</title>
<polygon fill="none" stroke="#000000" points="1749.9235,-1399 1497.9235,-1309 1749.9235,-1219 2001.9235,-1309 1749.9235,-1399"/>
<text text-anchor="middle" x="1749.9235" y="-1330.75" font-family="Helvetica,sans-Serif" font-size="14.50" fill="#000000">No</text>
<text text-anchor="middle" x="1749.9235" y="-1313.35" font-family="Helvetica,sans-Serif" font-size="14.50" fill="#000000">cryptococcus</text>
<text text-anchor="middle" x="1749.9235" y="-1295.95" font-family="Helvetica,sans-Serif" font-size="14.50" fill="#000000">ΔC = $cost_nocryptococcus</text>
<text text-anchor="middle" x="1749.9235" y="-1278.55" font-family="Helvetica,sans-Serif" font-size="14.50" fill="#000000">ΔQ = q_nocryptococcus</text>
</g>
<!-- donor_neg_ns&#45;&gt;inf_no_agneg_ns -->
<g id="edge9" class="edge">
<title>donor_neg_ns&#45;&gt;inf_no_agneg_ns</title>
<path fill="none" stroke="#000000" d="M1273.4467,-1389.5469C1340.8325,-1378.1555 1464.3881,-1357.2688 1568.7937,-1339.6194"/>
<polygon fill="#000000" stroke="#000000" points="1569.5585,-1343.0399 1578.8352,-1337.9219 1568.3916,-1336.1378 1569.5585,-1343.0399"/>
<text text-anchor="middle" x="1385.9328" y="-1390.5" font-family="Helvetica,sans-Serif" font-size="15.00" fill="#000000">p = 1&#45;p_spont_cryptococcus</text>
</g>
<!-- ag_truepos_s -->
<g id="node16" class="node">
<title>ag_truepos_s</title>
<ellipse fill="#ffffe0" stroke="#000000" cx="1749.9235" cy="-1150" rx="50.5" ry="50.5"/>
<text text-anchor="middle" x="1749.9235" y="-1154.35" font-family="Helvetica,sans-Serif" font-size="14.50" fill="#000000">Donor</text>
<text text-anchor="middle" x="1749.9235" y="-1136.95" font-family="Helvetica,sans-Serif" font-size="14.50" fill="#000000">CrAg+</text>
</g>
<!-- donor_pos_s&#45;&gt;ag_truepos_s -->
<g id="edge15" class="edge">
<title>donor_pos_s&#45;&gt;ag_truepos_s</title>
<path fill="none" stroke="#000000" d="M1273.4467,-1074.8833C1370.6974,-1090.2149 1584.939,-1123.9901 1689.7681,-1140.5165"/>
<polygon fill="#000000" stroke="#000000" points="1689.445,-1144.0087 1699.8681,-1142.1088 1690.5352,-1137.0941 1689.445,-1144.0087"/>
<text text-anchor="middle" x="1385.9328" y="-1111.5" font-family="Helvetica,sans-Serif" font-size="15.00" fill="#000000">p = p_sensitivity</text>
</g>
<!-- ag_falseneg_s -->
<g id="node17" class="node">
<title>ag_falseneg_s</title>
<ellipse fill="#ffffe0" stroke="#000000" cx="1749.9235" cy="-1011" rx="50.5" ry="50.5"/>
<text text-anchor="middle" x="1749.9235" y="-1015.35" font-family="Helvetica,sans-Serif" font-size="14.50" fill="#000000">Donor</text>
<text text-anchor="middle" x="1749.9235" y="-997.95" font-family="Helvetica,sans-Serif" font-size="14.50" fill="#000000">CrAg&#45;</text>
</g>
<!-- donor_pos_s&#45;&gt;ag_falseneg_s -->
<g id="edge16" class="edge">
<title>donor_pos_s&#45;&gt;ag_falseneg_s</title>
<path fill="none" stroke="#000000" d="M1272.6647,-1054.6193C1279.1212,-1053.2555 1285.6709,-1052.001 1291.942,-1051 1433.1452,-1028.4603 1601.0139,-1017.878 1689.0695,-1013.5559"/>
<polygon fill="#000000" stroke="#000000" points="1689.3265,-1017.0477 1699.1469,-1013.0717 1688.9904,-1010.0558 1689.3265,-1017.0477"/>
<text text-anchor="middle" x="1385.9328" y="-1055.5" font-family="Helvetica,sans-Serif" font-size="15.00" fill="#000000">p = 1&#45;p_sensitivity</text>
</g>
<!-- ag_falsepos_s -->
<g id="node18" class="node">
<title>ag_falsepos_s</title>
<ellipse fill="#ffffe0" stroke="#000000" cx="1749.9235" cy="-546" rx="50.5" ry="50.5"/>
<text text-anchor="middle" x="1749.9235" y="-550.35" font-family="Helvetica,sans-Serif" font-size="14.50" fill="#000000">Donor</text>
<text text-anchor="middle" x="1749.9235" y="-532.95" font-family="Helvetica,sans-Serif" font-size="14.50" fill="#000000">CrAg+</text>
</g>
<!-- donor_neg_s&#45;&gt;ag_falsepos_s -->
<g id="edge22" class="edge">
<title>donor_neg_s&#45;&gt;ag_falsepos_s</title>
<path fill="none" stroke="#000000" d="M1274.4016,-546C1371.9265,-546 1584.5537,-546 1689.2324,-546"/>
<polygon fill="#000000" stroke="#000000" points="1689.3224,-549.5001 1699.3224,-546 1689.3223,-542.5001 1689.3224,-549.5001"/>
<text text-anchor="middle" x="1385.9328" y="-550.5" font-family="Helvetica,sans-Serif" font-size="15.00" fill="#000000">p = 1&#45;p_specificity</text>
</g>
<!-- ag_trueneg_s -->
<g id="node19" class="node">
<title>ag_trueneg_s</title>
<ellipse fill="#ffffe0" stroke="#000000" cx="1749.9235" cy="-297" rx="50.5" ry="50.5"/>
<text text-anchor="middle" x="1749.9235" y="-301.35" font-family="Helvetica,sans-Serif" font-size="14.50" fill="#000000">Donor</text>
<text text-anchor="middle" x="1749.9235" y="-283.95" font-family="Helvetica,sans-Serif" font-size="14.50" fill="#000000">CrAg&#45;</text>
</g>
<!-- donor_neg_s&#45;&gt;ag_trueneg_s -->
<g id="edge21" class="edge">
<title>donor_neg_s&#45;&gt;ag_trueneg_s</title>
<path fill="none" stroke="#000000" d="M1269.2428,-524.3385C1366.0169,-478.5691 1590.9379,-372.1924 1695.1319,-322.9137"/>
<polygon fill="#000000" stroke="#000000" points="1696.6857,-326.0506 1704.2292,-318.6111 1693.6929,-319.7227 1696.6857,-326.0506"/>
<text text-anchor="middle" x="1385.9328" y="-514.5" font-family="Helvetica,sans-Serif" font-size="15.00" fill="#000000">p = p_specificity</text>
</g>
<!-- transplant_cancelled_ag_truepos_s -->
<g id="node20" class="node">
<title>transplant_cancelled_ag_truepos_s</title>
<polygon fill="#add8e6" stroke="#000000" points="2477.905,-1419 2225.905,-1329 2477.905,-1239 2729.905,-1329 2477.905,-1419"/>
<text text-anchor="middle" x="2477.905" y="-1350.75" font-family="Helvetica,sans-Serif" font-size="14.50" fill="#000000">Transplant</text>
<text text-anchor="middle" x="2477.905" y="-1333.35" font-family="Helvetica,sans-Serif" font-size="14.50" fill="#000000">cancelled</text>
<text text-anchor="middle" x="2477.905" y="-1315.95" font-family="Helvetica,sans-Serif" font-size="14.50" fill="#000000">ΔC = $cost_cancellation</text>
<text text-anchor="middle" x="2477.905" y="-1298.55" font-family="Helvetica,sans-Serif" font-size="14.50" fill="#000000">ΔQ = q_noacceptance</text>
</g>
<!-- ag_truepos_s&#45;&gt;transplant_cancelled_ag_truepos_s -->
<g id="edge17" class="edge">
<title>ag_truepos_s&#45;&gt;transplant_cancelled_ag_truepos_s</title>
<path fill="none" stroke="#000000" d="M1799.216,-1161.5634C1850.0447,-1173.5278 1931.5814,-1192.8334 2001.9235,-1210 2108.3198,-1235.9654 2227.9086,-1265.8666 2320.5996,-1289.2004"/>
<polygon fill="#000000" stroke="#000000" points="2319.7856,-1292.6046 2330.3375,-1291.6525 2321.4949,-1285.8165 2319.7856,-1292.6046"/>
<text text-anchor="middle" x="2113.9143" y="-1263.5" font-family="Helvetica,sans-Serif" font-size="15.00" fill="#000000">p = p_cancelled</text>
</g>
<!-- transplant_notcancelled_ag_truepos_s -->
<g id="node21" class="node">
<title>transplant_notcancelled_ag_truepos_s</title>
<ellipse fill="#ffffe0" stroke="#000000" cx="2477.905" cy="-1170" rx="50.5" ry="50.5"/>
<text text-anchor="middle" x="2477.905" y="-1183.05" font-family="Helvetica,sans-Serif" font-size="14.50" fill="#000000">Transplant</text>
<text text-anchor="middle" x="2477.905" y="-1165.65" font-family="Helvetica,sans-Serif" font-size="14.50" fill="#000000">not</text>
<text text-anchor="middle" x="2477.905" y="-1148.25" font-family="Helvetica,sans-Serif" font-size="14.50" fill="#000000">cancelled</text>
</g>
<!-- ag_truepos_s&#45;&gt;transplant_notcancelled_ag_truepos_s -->
<g id="edge18" class="edge">
<title>ag_truepos_s&#45;&gt;transplant_notcancelled_ag_truepos_s</title>
<path fill="none" stroke="#000000" d="M1800.5358,-1151.3905C1930.6102,-1154.964 2276.2149,-1164.4589 2416.9689,-1168.3259"/>
<polygon fill="#000000" stroke="#000000" points="2417.0522,-1171.8294 2427.1446,-1168.6054 2417.2445,-1164.832 2417.0522,-1171.8294"/>
<text text-anchor="middle" x="2113.9143" y="-1167.5" font-family="Helvetica,sans-Serif" font-size="15.00" fill="#000000">p = 1&#45;p_cancelled</text>
</g>
<!-- inf_y_ag_falseneg_s -->
<g id="node36" class="node">
<title>inf_y_ag_falseneg_s</title>
<polygon fill="#ffe4e1" stroke="#000000" points="2477.905,-1101 2225.905,-1011 2477.905,-921 2729.905,-1011 2477.905,-1101"/>
<text text-anchor="middle" x="2477.905" y="-1032.75" font-family="Helvetica,sans-Serif" font-size="14.50" fill="#000000">Recipient</text>
<text text-anchor="middle" x="2477.905" y="-1015.35" font-family="Helvetica,sans-Serif" font-size="14.50" fill="#000000">cryptococcosis</text>
<text text-anchor="middle" x="2477.905" y="-997.95" font-family="Helvetica,sans-Serif" font-size="14.50" fill="#000000">ΔC = $cost_disease</text>
<text text-anchor="middle" x="2477.905" y="-980.55" font-family="Helvetica,sans-Serif" font-size="14.50" fill="#000000">ΔQ = q_nocryptococcus&#45;q_loss_cryptococcus</text>
</g>
<!-- ag_falseneg_s&#45;&gt;inf_y_ag_falseneg_s -->
<g id="edge31" class="edge">
<title>ag_falseneg_s&#45;&gt;inf_y_ag_falseneg_s</title>
<path fill="none" stroke="#000000" d="M1800.5358,-1011C1885.7183,-1011 2063.3336,-1011 2215.3172,-1011"/>
<polygon fill="#000000" stroke="#000000" points="2215.7516,-1014.5001 2225.7515,-1011 2215.7515,-1007.5001 2215.7516,-1014.5001"/>
<text text-anchor="middle" x="2113.9143" y="-1015.5" font-family="Helvetica,sans-Serif" font-size="15.00" fill="#000000">p = p_transmission</text>
</g>
<!-- inf_n_ag_falseneg_s -->
<g id="node37" class="node">
<title>inf_n_ag_falseneg_s</title>
<polygon fill="none" stroke="#000000" points="2477.905,-903 2225.905,-813 2477.905,-723 2729.905,-813 2477.905,-903"/>
<text text-anchor="middle" x="2477.905" y="-834.75" font-family="Helvetica,sans-Serif" font-size="14.50" fill="#000000">No</text>
<text text-anchor="middle" x="2477.905" y="-817.35" font-family="Helvetica,sans-Serif" font-size="14.50" fill="#000000">cryptococcus</text>
<text text-anchor="middle" x="2477.905" y="-799.95" font-family="Helvetica,sans-Serif" font-size="14.50" fill="#000000">ΔC = $cost_nocryptococcus</text>
<text text-anchor="middle" x="2477.905" y="-782.55" font-family="Helvetica,sans-Serif" font-size="14.50" fill="#000000">ΔQ = q_nocryptococcus</text>
</g>
<!-- ag_falseneg_s&#45;&gt;inf_n_ag_falseneg_s -->
<g id="edge32" class="edge">
<title>ag_falseneg_s&#45;&gt;inf_n_ag_falseneg_s</title>
<path fill="none" stroke="#000000" d="M1798.8188,-997.7012C1904.7792,-968.8816 2159.3537,-899.6412 2324.9333,-854.606"/>
<polygon fill="#000000" stroke="#000000" points="2325.9899,-857.9459 2334.7207,-851.944 2324.1527,-851.1912 2325.9899,-857.9459"/>
<text text-anchor="middle" x="2113.9143" y="-940.5" font-family="Helvetica,sans-Serif" font-size="15.00" fill="#000000">p = 1&#45;p_transmission</text>
</g>
<!-- transplant_cancelled_ag_falsepos_s -->
<g id="node22" class="node">
<title>transplant_cancelled_ag_falsepos_s</title>
<polygon fill="#add8e6" stroke="#000000" points="2477.905,-705 2225.905,-615 2477.905,-525 2729.905,-615 2477.905,-705"/>
<text text-anchor="middle" x="2477.905" y="-636.75" font-family="Helvetica,sans-Serif" font-size="14.50" fill="#000000">Transplant</text>
<text text-anchor="middle" x="2477.905" y="-619.35" font-family="Helvetica,sans-Serif" font-size="14.50" fill="#000000">cancelled</text>
<text text-anchor="middle" x="2477.905" y="-601.95" font-family="Helvetica,sans-Serif" font-size="14.50" fill="#000000">ΔC = $cost_cancellation</text>
<text text-anchor="middle" x="2477.905" y="-584.55" font-family="Helvetica,sans-Serif" font-size="14.50" fill="#000000">ΔQ = q_noacceptance</text>
</g>
<!-- ag_falsepos_s&#45;&gt;transplant_cancelled_ag_falsepos_s -->
<g id="edge23" class="edge">
<title>ag_falsepos_s&#45;&gt;transplant_cancelled_ag_falsepos_s</title>
<path fill="none" stroke="#000000" d="M1800.2478,-550.7699C1895.4498,-559.7934 2106.843,-579.8298 2268.3913,-595.1417"/>
<polygon fill="#000000" stroke="#000000" points="2268.1857,-598.6379 2278.4714,-596.0972 2268.8463,-591.6691 2268.1857,-598.6379"/>
<text text-anchor="middle" x="2113.9143" y="-593.5" font-family="Helvetica,sans-Serif" font-size="15.00" fill="#000000">p = p_cancelled</text>
</g>
<!-- transplant_notcancelled_ag_falsepos_s -->
<g id="node23" class="node">
<title>transplant_notcancelled_ag_falsepos_s</title>
<ellipse fill="#ffffe0" stroke="#000000" cx="2477.905" cy="-456" rx="50.5" ry="50.5"/>
<text text-anchor="middle" x="2477.905" y="-469.05" font-family="Helvetica,sans-Serif" font-size="14.50" fill="#000000">Transplant</text>
<text text-anchor="middle" x="2477.905" y="-451.65" font-family="Helvetica,sans-Serif" font-size="14.50" fill="#000000">not</text>
<text text-anchor="middle" x="2477.905" y="-434.25" font-family="Helvetica,sans-Serif" font-size="14.50" fill="#000000">cancelled</text>
</g>
<!-- ag_falsepos_s&#45;&gt;transplant_notcancelled_ag_falsepos_s -->
<g id="edge24" class="edge">
<title>ag_falsepos_s&#45;&gt;transplant_notcancelled_ag_falsepos_s</title>
<path fill="none" stroke="#000000" d="M1800.2478,-539.7784C1930.2361,-523.708 2276.8395,-480.8576 2417.4129,-463.4786"/>
<polygon fill="#000000" stroke="#000000" points="2418.0778,-466.9231 2427.5728,-462.2225 2417.2189,-459.976 2418.0778,-466.9231"/>
<text text-anchor="middle" x="2113.9143" y="-516.5" font-family="Helvetica,sans-Serif" font-size="15.00" fill="#000000">p = 1&#45;p_cancelled</text>
</g>
<!-- inf_y_ag_trueneg_s -->
<g id="node38" class="node">
<title>inf_y_ag_trueneg_s</title>
<polygon fill="#ffe4e1" stroke="#000000" points="2477.905,-387 2225.905,-297 2477.905,-207 2729.905,-297 2477.905,-387"/>
<text text-anchor="middle" x="2477.905" y="-318.75" font-family="Helvetica,sans-Serif" font-size="14.50" fill="#000000">Recipient</text>
<text text-anchor="middle" x="2477.905" y="-301.35" font-family="Helvetica,sans-Serif" font-size="14.50" fill="#000000">cryptococcosis</text>
<text text-anchor="middle" x="2477.905" y="-283.95" font-family="Helvetica,sans-Serif" font-size="14.50" fill="#000000">ΔC = $cost_disease</text>
<text text-anchor="middle" x="2477.905" y="-266.55" font-family="Helvetica,sans-Serif" font-size="14.50" fill="#000000">ΔQ = q_nocryptococcus&#45;q_loss_cryptococcus</text>
</g>
<!-- ag_trueneg_s&#45;&gt;inf_y_ag_trueneg_s -->
<g id="edge33" class="edge">
<title>ag_trueneg_s&#45;&gt;inf_y_ag_trueneg_s</title>
<path fill="none" stroke="#000000" d="M1800.5358,-297C1885.7183,-297 2063.3336,-297 2215.3172,-297"/>
<polygon fill="#000000" stroke="#000000" points="2215.7516,-300.5001 2225.7515,-297 2215.7515,-293.5001 2215.7516,-300.5001"/>
<text text-anchor="middle" x="2113.9143" y="-301.5" font-family="Helvetica,sans-Serif" font-size="15.00" fill="#000000">p = p_spont_cryptococcus</text>
</g>
<!-- inf_n_ag_trueneg_s -->
<g id="node39" class="node">
<title>inf_n_ag_trueneg_s</title>
<polygon fill="none" stroke="#000000" points="2477.905,-189 2225.905,-99 2477.905,-9 2729.905,-99 2477.905,-189"/>
<text text-anchor="middle" x="2477.905" y="-120.75" font-family="Helvetica,sans-Serif" font-size="14.50" fill="#000000">No</text>
<text text-anchor="middle" x="2477.905" y="-103.35" font-family="Helvetica,sans-Serif" font-size="14.50" fill="#000000">cryptococcus</text>
<text text-anchor="middle" x="2477.905" y="-85.95" font-family="Helvetica,sans-Serif" font-size="14.50" fill="#000000">ΔC = $cost_nocryptococcus</text>
<text text-anchor="middle" x="2477.905" y="-68.55" font-family="Helvetica,sans-Serif" font-size="14.50" fill="#000000">ΔQ = q_nocryptococcus</text>
</g>
<!-- ag_trueneg_s&#45;&gt;inf_n_ag_trueneg_s -->
<g id="edge34" class="edge">
<title>ag_trueneg_s&#45;&gt;inf_n_ag_trueneg_s</title>
<path fill="none" stroke="#000000" d="M1798.8188,-283.7012C1904.7792,-254.8816 2159.3537,-185.6412 2324.9333,-140.606"/>
<polygon fill="#000000" stroke="#000000" points="2325.9899,-143.9459 2334.7207,-137.944 2324.1527,-137.1912 2325.9899,-143.9459"/>
<text text-anchor="middle" x="2113.9143" y="-226.5" font-family="Helvetica,sans-Serif" font-size="15.00" fill="#000000">p = 1&#45;p_spont_cryptococcus</text>
</g>
<!-- proph_yes_transplant_notcancelled_ag_truepos_s -->
<g id="node24" class="node">
<title>proph_yes_transplant_notcancelled_ag_truepos_s</title>
<ellipse fill="#ffffe0" stroke="#000000" cx="2936.0345" cy="-1298" rx="50.5" ry="50.5"/>
<text text-anchor="middle" x="2936.0345" y="-1311.05" font-family="Helvetica,sans-Serif" font-size="14.50" fill="#000000">Fluconazole</text>
<text text-anchor="middle" x="2936.0345" y="-1293.65" font-family="Helvetica,sans-Serif" font-size="14.50" fill="#000000">prophylaxis</text>
<text text-anchor="middle" x="2936.0345" y="-1276.25" font-family="Helvetica,sans-Serif" font-size="14.50" fill="#000000">ΔC = $cost_fluconazole</text>
</g>
<!-- transplant_notcancelled_ag_truepos_s&#45;&gt;proph_yes_transplant_notcancelled_ag_truepos_s -->
<g id="edge19" class="edge">
<title>transplant_notcancelled_ag_truepos_s&#45;&gt;proph_yes_transplant_notcancelled_ag_truepos_s</title>
<path fill="none" stroke="#000000" d="M2527.4783,-1180.4982C2578.5307,-1191.6141 2660.2427,-1210.2549 2729.905,-1230 2780.5872,-1244.3653 2837.3831,-1263.3186 2878.5029,-1277.5657"/>
<polygon fill="#000000" stroke="#000000" points="2877.4842,-1280.9169 2888.079,-1280.8966 2879.784,-1274.3055 2877.4842,-1280.9169"/>
<text text-anchor="middle" x="2807.7198" y="-1277.5" font-family="Helvetica,sans-Serif" font-size="15.00" fill="#000000">p = p_prophrate</text>
</g>
<!-- proph_no_transplant_notcancelled_ag_truepos_s -->
<g id="node25" class="node">
<title>proph_no_transplant_notcancelled_ag_truepos_s</title>
<ellipse fill="#ffffe0" stroke="#000000" cx="2936.0345" cy="-1100" rx="50.5" ry="50.5"/>
<text text-anchor="middle" x="2936.0345" y="-1104.35" font-family="Helvetica,sans-Serif" font-size="14.50" fill="#000000">No</text>
<text text-anchor="middle" x="2936.0345" y="-1086.95" font-family="Helvetica,sans-Serif" font-size="14.50" fill="#000000">prophylaxis</text>
</g>
<!-- transplant_notcancelled_ag_truepos_s&#45;&gt;proph_no_transplant_notcancelled_ag_truepos_s -->
<g id="edge20" class="edge">
<title>transplant_notcancelled_ag_truepos_s&#45;&gt;proph_no_transplant_notcancelled_ag_truepos_s</title>
<path fill="none" stroke="#000000" d="M2528.2434,-1162.3085C2613.2673,-1149.3173 2784.9442,-1123.0859 2876.0624,-1109.1634"/>
<polygon fill="#000000" stroke="#000000" points="2876.6047,-1112.6213 2885.9613,-1107.6509 2875.5474,-1105.7016 2876.6047,-1112.6213"/>
<text text-anchor="middle" x="2807.7198" y="-1133.5" font-family="Helvetica,sans-Serif" font-size="15.00" fill="#000000">p = 1&#45;p_prophrate</text>
</g>
<!-- proph_yes_transplant_notcancelled_ag_falsepos_s -->
<g id="node26" class="node">
<title>proph_yes_transplant_notcancelled_ag_falsepos_s</title>
<ellipse fill="#ffffe0" stroke="#000000" cx="2936.0345" cy="-486" rx="50.5" ry="50.5"/>
<text text-anchor="middle" x="2936.0345" y="-499.05" font-family="Helvetica,sans-Serif" font-size="14.50" fill="#000000">Fluconazole</text>
<text text-anchor="middle" x="2936.0345" y="-481.65" font-family="Helvetica,sans-Serif" font-size="14.50" fill="#000000">prophylaxis</text>
<text text-anchor="middle" x="2936.0345" y="-464.25" font-family="Helvetica,sans-Serif" font-size="14.50" fill="#000000">ΔC = $cost_fluconazole</text>
</g>
<!-- transplant_notcancelled_ag_falsepos_s&#45;&gt;proph_yes_transplant_notcancelled_ag_falsepos_s -->
<g id="edge25" class="edge">
<title>transplant_notcancelled_ag_falsepos_s&#45;&gt;proph_yes_transplant_notcancelled_ag_falsepos_s</title>
<path fill="none" stroke="#000000" d="M2528.6833,-459.3251C2613.5894,-464.8851 2784.0215,-476.0456 2875.1991,-482.0163"/>
<polygon fill="#000000" stroke="#000000" points="2875.171,-485.5218 2885.3784,-482.6829 2875.6285,-478.5368 2875.171,-485.5218"/>
<text text-anchor="middle" x="2807.7198" y="-485.5" font-family="Helvetica,sans-Serif" font-size="15.00" fill="#000000">p = p_prophrate</text>
</g>
<!-- proph_no_transplant_notcancelled_ag_falsepos_s -->
<g id="node27" class="node">
<title>proph_no_transplant_notcancelled_ag_falsepos_s</title>
<ellipse fill="#ffffe0" stroke="#000000" cx="2936.0345" cy="-288" rx="50.5" ry="50.5"/>
<text text-anchor="middle" x="2936.0345" y="-292.35" font-family="Helvetica,sans-Serif" font-size="14.50" fill="#000000">No</text>
<text text-anchor="middle" x="2936.0345" y="-274.95" font-family="Helvetica,sans-Serif" font-size="14.50" fill="#000000">prophylaxis</text>
</g>
<!-- transplant_notcancelled_ag_falsepos_s&#45;&gt;proph_no_transplant_notcancelled_ag_falsepos_s -->
<g id="edge26" class="edge">
<title>transplant_notcancelled_ag_falsepos_s&#45;&gt;proph_no_transplant_notcancelled_ag_falsepos_s</title>
<path fill="none" stroke="#000000" d="M2527.7626,-447.9173C2579.3938,-438.6774 2661.8831,-421.4624 2729.905,-396 2784.7193,-375.4815 2843.5061,-343.5997 2884.2156,-319.7865"/>
<polygon fill="#000000" stroke="#000000" points="2886.0379,-322.7751 2892.8761,-314.6825 2882.4838,-316.7445 2886.0379,-322.7751"/>
<text text-anchor="middle" x="2807.7198" y="-391.5" font-family="Helvetica,sans-Serif" font-size="15.00" fill="#000000">p = 1&#45;p_prophrate</text>
</g>
<!-- inf_y_proph_yes_transplant_notcancelled_ag_truepos_s -->
<g id="node28" class="node">
<title>inf_y_proph_yes_transplant_notcancelled_ag_truepos_s</title>
<polygon fill="#ffe4e1" stroke="#000000" points="3597.5355,-1586 3345.5355,-1496 3597.5355,-1406 3849.5355,-1496 3597.5355,-1586"/>
<text text-anchor="middle" x="3597.5355" y="-1517.75" font-family="Helvetica,sans-Serif" font-size="14.50" fill="#000000">Recipient</text>
<text text-anchor="middle" x="3597.5355" y="-1500.35" font-family="Helvetica,sans-Serif" font-size="14.50" fill="#000000">cryptococcosis</text>
<text text-anchor="middle" x="3597.5355" y="-1482.95" font-family="Helvetica,sans-Serif" font-size="14.50" fill="#000000">ΔC = $cost_disease</text>
<text text-anchor="middle" x="3597.5355" y="-1465.55" font-family="Helvetica,sans-Serif" font-size="14.50" fill="#000000">ΔQ = q_nocryptococcus&#45;q_loss_cryptococcus</text>
</g>
<!-- proph_yes_transplant_notcancelled_ag_truepos_s&#45;&gt;inf_y_proph_yes_transplant_notcancelled_ag_truepos_s -->
<g id="edge27" class="edge">
<title>proph_yes_transplant_notcancelled_ag_truepos_s&#45;&gt;inf_y_proph_yes_transplant_notcancelled_ag_truepos_s</title>
<path fill="none" stroke="#000000" d="M2984.2686,-1313.6397C2991.0655,-1315.8002 2997.9707,-1317.9722 3004.5345,-1320 3155.3833,-1366.6032 3328.5478,-1417.7254 3448.6449,-1452.806"/>
<polygon fill="#000000" stroke="#000000" points="3447.7036,-1456.1772 3458.2838,-1455.6203 3449.6656,-1449.4578 3447.7036,-1456.1772"/>
<text text-anchor="middle" x="3166.035" y="-1422.5" font-family="Helvetica,sans-Serif" font-size="15.00" fill="#000000">p = (1&#45;p_prophefficacy)*p_transmission</text>
</g>
<!-- inf_n_proph_yes_transplant_notcancelled_ag_truepos_s -->
<g id="node29" class="node">
<title>inf_n_proph_yes_transplant_notcancelled_ag_truepos_s</title>
<polygon fill="none" stroke="#000000" points="3597.5355,-1388 3345.5355,-1298 3597.5355,-1208 3849.5355,-1298 3597.5355,-1388"/>
<text text-anchor="middle" x="3597.5355" y="-1319.75" font-family="Helvetica,sans-Serif" font-size="14.50" fill="#000000">No</text>
<text text-anchor="middle" x="3597.5355" y="-1302.35" font-family="Helvetica,sans-Serif" font-size="14.50" fill="#000000">cryptococcosis</text>
<text text-anchor="middle" x="3597.5355" y="-1284.95" font-family="Helvetica,sans-Serif" font-size="14.50" fill="#000000">ΔC = $cost_nocryptococcus</text>
<text text-anchor="middle" x="3597.5355" y="-1267.55" font-family="Helvetica,sans-Serif" font-size="14.50" fill="#000000">ΔQ = q_nocryptococcus</text>
</g>
<!-- proph_yes_transplant_notcancelled_ag_truepos_s&#45;&gt;inf_n_proph_yes_transplant_notcancelled_ag_truepos_s -->
<g id="edge28" class="edge">
<title>proph_yes_transplant_notcancelled_ag_truepos_s&#45;&gt;inf_n_proph_yes_transplant_notcancelled_ag_truepos_s</title>
<path fill="none" stroke="#000000" d="M2986.5699,-1298C3061.0414,-1298 3205.4858,-1298 3335.2337,-1298"/>
<polygon fill="#000000" stroke="#000000" points="3335.3429,-1301.5001 3345.3429,-1298 3335.3429,-1294.5001 3335.3429,-1301.5001"/>
<text text-anchor="middle" x="3166.035" y="-1302.5" font-family="Helvetica,sans-Serif" font-size="15.00" fill="#000000">p = 1&#45;(1&#45;p_prophefficacy)*p_transmission</text>
</g>
<!-- inf_y_proph_no_transplant_notcancelled_ag_truepos_s -->
<g id="node30" class="node">
<title>inf_y_proph_no_transplant_notcancelled_ag_truepos_s</title>
<polygon fill="#ffe4e1" stroke="#000000" points="3597.5355,-1190 3345.5355,-1100 3597.5355,-1010 3849.5355,-1100 3597.5355,-1190"/>
<text text-anchor="middle" x="3597.5355" y="-1121.75" font-family="Helvetica,sans-Serif" font-size="14.50" fill="#000000">Recipient</text>
<text text-anchor="middle" x="3597.5355" y="-1104.35" font-family="Helvetica,sans-Serif" font-size="14.50" fill="#000000">cryptococcosis</text>
<text text-anchor="middle" x="3597.5355" y="-1086.95" font-family="Helvetica,sans-Serif" font-size="14.50" fill="#000000">ΔC = $cost_disease</text>
<text text-anchor="middle" x="3597.5355" y="-1069.55" font-family="Helvetica,sans-Serif" font-size="14.50" fill="#000000">ΔQ = q_nocryptococcus&#45;q_loss_cryptococcus</text>
</g>
<!-- proph_no_transplant_notcancelled_ag_truepos_s&#45;&gt;inf_y_proph_no_transplant_notcancelled_ag_truepos_s -->
<g id="edge29" class="edge">
<title>proph_no_transplant_notcancelled_ag_truepos_s&#45;&gt;inf_y_proph_no_transplant_notcancelled_ag_truepos_s</title>
<path fill="none" stroke="#000000" d="M2986.5699,-1100C3061.0414,-1100 3205.4858,-1100 3335.2337,-1100"/>
<polygon fill="#000000" stroke="#000000" points="3335.3429,-1103.5001 3345.3429,-1100 3335.3429,-1096.5001 3335.3429,-1103.5001"/>
<text text-anchor="middle" x="3166.035" y="-1104.5" font-family="Helvetica,sans-Serif" font-size="15.00" fill="#000000">p = p_transmission</text>
</g>
<!-- inf_n_proph_no_transplant_notcancelled_ag_truepos_s -->
<g id="node31" class="node">
<title>inf_n_proph_no_transplant_notcancelled_ag_truepos_s</title>
<polygon fill="none" stroke="#000000" points="3597.5355,-992 3345.5355,-902 3597.5355,-812 3849.5355,-902 3597.5355,-992"/>
<text text-anchor="middle" x="3597.5355" y="-923.75" font-family="Helvetica,sans-Serif" font-size="14.50" fill="#000000">No</text>
<text text-anchor="middle" x="3597.5355" y="-906.35" font-family="Helvetica,sans-Serif" font-size="14.50" fill="#000000">cryptococcosis</text>
<text text-anchor="middle" x="3597.5355" y="-888.95" font-family="Helvetica,sans-Serif" font-size="14.50" fill="#000000">ΔC = $cost_nocryptococcus</text>
<text text-anchor="middle" x="3597.5355" y="-871.55" font-family="Helvetica,sans-Serif" font-size="14.50" fill="#000000">ΔQ = q_nocryptococcus</text>
</g>
<!-- proph_no_transplant_notcancelled_ag_truepos_s&#45;&gt;inf_n_proph_no_transplant_notcancelled_ag_truepos_s -->
<g id="edge30" class="edge">
<title>proph_no_transplant_notcancelled_ag_truepos_s&#45;&gt;inf_n_proph_no_transplant_notcancelled_ag_truepos_s</title>
<path fill="none" stroke="#000000" d="M2984.2686,-1084.3603C2991.0655,-1082.1998 2997.9707,-1080.0278 3004.5345,-1078 3155.3833,-1031.3968 3328.5478,-980.2746 3448.6449,-945.194"/>
<polygon fill="#000000" stroke="#000000" points="3449.6656,-948.5422 3458.2838,-942.3797 3447.7036,-941.8228 3449.6656,-948.5422"/>
<text text-anchor="middle" x="3166.035" y="-1082.5" font-family="Helvetica,sans-Serif" font-size="15.00" fill="#000000">p = 1&#45;p_transmission</text>
</g>
<!-- inf_y_proph_yes_transplant_notcancelled_ag_falsepos_s -->
<g id="node32" class="node">
<title>inf_y_proph_yes_transplant_notcancelled_ag_falsepos_s</title>
<polygon fill="#ffe4e1" stroke="#000000" points="3597.5355,-774 3345.5355,-684 3597.5355,-594 3849.5355,-684 3597.5355,-774"/>
<text text-anchor="middle" x="3597.5355" y="-705.75" font-family="Helvetica,sans-Serif" font-size="14.50" fill="#000000">Recipient</text>
<text text-anchor="middle" x="3597.5355" y="-688.35" font-family="Helvetica,sans-Serif" font-size="14.50" fill="#000000">cryptococcosis</text>
<text text-anchor="middle" x="3597.5355" y="-670.95" font-family="Helvetica,sans-Serif" font-size="14.50" fill="#000000">ΔC = $cost_disease</text>
<text text-anchor="middle" x="3597.5355" y="-653.55" font-family="Helvetica,sans-Serif" font-size="14.50" fill="#000000">ΔQ = q_nocryptococcus&#45;q_loss_cryptococcus</text>
</g>
<!-- proph_yes_transplant_notcancelled_ag_falsepos_s&#45;&gt;inf_y_proph_yes_transplant_notcancelled_ag_falsepos_s -->
<g id="edge35" class="edge">
<title>proph_yes_transplant_notcancelled_ag_falsepos_s&#45;&gt;inf_y_proph_yes_transplant_notcancelled_ag_falsepos_s</title>
<path fill="none" stroke="#000000" d="M2984.2686,-501.6397C2991.0655,-503.8002 2997.9707,-505.9722 3004.5345,-508 3155.3833,-554.6032 3328.5478,-605.7254 3448.6449,-640.806"/>
<polygon fill="#000000" stroke="#000000" points="3447.7036,-644.1772 3458.2838,-643.6203 3449.6656,-637.4578 3447.7036,-644.1772"/>
<text text-anchor="middle" x="3166.035" y="-610.5" font-family="Helvetica,sans-Serif" font-size="15.00" fill="#000000">p = (1&#45;p_prophefficacy)*p_spont_cryptococcus</text>
</g>
<!-- inf_n_proph_yes_transplant_notcancelled_ag_falsepos_s -->
<g id="node33" class="node">
<title>inf_n_proph_yes_transplant_notcancelled_ag_falsepos_s</title>
<polygon fill="none" stroke="#000000" points="3597.5355,-576 3345.5355,-486 3597.5355,-396 3849.5355,-486 3597.5355,-576"/>
<text text-anchor="middle" x="3597.5355" y="-507.75" font-family="Helvetica,sans-Serif" font-size="14.50" fill="#000000">No</text>
<text text-anchor="middle" x="3597.5355" y="-490.35" font-family="Helvetica,sans-Serif" font-size="14.50" fill="#000000">cryptococcus</text>
<text text-anchor="middle" x="3597.5355" y="-472.95" font-family="Helvetica,sans-Serif" font-size="14.50" fill="#000000">ΔC = $cost_nocryptococcus</text>
<text text-anchor="middle" x="3597.5355" y="-455.55" font-family="Helvetica,sans-Serif" font-size="14.50" fill="#000000">ΔQ = q_nocryptococcus</text>
</g>
<!-- proph_yes_transplant_notcancelled_ag_falsepos_s&#45;&gt;inf_n_proph_yes_transplant_notcancelled_ag_falsepos_s -->
<g id="edge36" class="edge">
<title>proph_yes_transplant_notcancelled_ag_falsepos_s&#45;&gt;inf_n_proph_yes_transplant_notcancelled_ag_falsepos_s</title>
<path fill="none" stroke="#000000" d="M2986.5699,-486C3061.0414,-486 3205.4858,-486 3335.2337,-486"/>
<polygon fill="#000000" stroke="#000000" points="3335.3429,-489.5001 3345.3429,-486 3335.3429,-482.5001 3335.3429,-489.5001"/>
<text text-anchor="middle" x="3166.035" y="-490.5" font-family="Helvetica,sans-Serif" font-size="15.00" fill="#000000">p = 1&#45;(1&#45;p_prophefficacy)*p_spont_cryptococcus</text>
</g>
<!-- inf_y_proph_no_transplant_notcancelled_ag_falsepos_s -->
<g id="node34" class="node">
<title>inf_y_proph_no_transplant_notcancelled_ag_falsepos_s</title>
<polygon fill="#ffe4e1" stroke="#000000" points="3597.5355,-378 3345.5355,-288 3597.5355,-198 3849.5355,-288 3597.5355,-378"/>
<text text-anchor="middle" x="3597.5355" y="-309.75" font-family="Helvetica,sans-Serif" font-size="14.50" fill="#000000">Recipient</text>
<text text-anchor="middle" x="3597.5355" y="-292.35" font-family="Helvetica,sans-Serif" font-size="14.50" fill="#000000">cryptococcosis</text>
<text text-anchor="middle" x="3597.5355" y="-274.95" font-family="Helvetica,sans-Serif" font-size="14.50" fill="#000000">ΔC = $cost_disease</text>
<text text-anchor="middle" x="3597.5355" y="-257.55" font-family="Helvetica,sans-Serif" font-size="14.50" fill="#000000">ΔQ = q_nocryptococcus&#45;q_loss_cryptococcus</text>
</g>
<!-- proph_no_transplant_notcancelled_ag_falsepos_s&#45;&gt;inf_y_proph_no_transplant_notcancelled_ag_falsepos_s -->
<g id="edge37" class="edge">
<title>proph_no_transplant_notcancelled_ag_falsepos_s&#45;&gt;inf_y_proph_no_transplant_notcancelled_ag_falsepos_s</title>
<path fill="none" stroke="#000000" d="M2986.5699,-288C3061.0414,-288 3205.4858,-288 3335.2337,-288"/>
<polygon fill="#000000" stroke="#000000" points="3335.3429,-291.5001 3345.3429,-288 3335.3429,-284.5001 3335.3429,-291.5001"/>
<text text-anchor="middle" x="3166.035" y="-292.5" font-family="Helvetica,sans-Serif" font-size="15.00" fill="#000000">p = p_spont_cryptococcus</text>
</g>
<!-- inf_n_proph_no_transplant_notcancelled_ag_falsepos_s -->
<g id="node35" class="node">
<title>inf_n_proph_no_transplant_notcancelled_ag_falsepos_s</title>
<polygon fill="none" stroke="#000000" points="3597.5355,-180 3345.5355,-90 3597.5355,0 3849.5355,-90 3597.5355,-180"/>
<text text-anchor="middle" x="3597.5355" y="-111.75" font-family="Helvetica,sans-Serif" font-size="14.50" fill="#000000">No</text>
<text text-anchor="middle" x="3597.5355" y="-94.35" font-family="Helvetica,sans-Serif" font-size="14.50" fill="#000000">cryptococcus</text>
<text text-anchor="middle" x="3597.5355" y="-76.95" font-family="Helvetica,sans-Serif" font-size="14.50" fill="#000000">ΔC = $cost_nocryptococcus</text>
<text text-anchor="middle" x="3597.5355" y="-59.55" font-family="Helvetica,sans-Serif" font-size="14.50" fill="#000000">ΔQ = q_nocryptococcus</text>
</g>
<!-- proph_no_transplant_notcancelled_ag_falsepos_s&#45;&gt;inf_n_proph_no_transplant_notcancelled_ag_falsepos_s -->
<g id="edge38" class="edge">
<title>proph_no_transplant_notcancelled_ag_falsepos_s&#45;&gt;inf_n_proph_no_transplant_notcancelled_ag_falsepos_s</title>
<path fill="none" stroke="#000000" d="M2984.2686,-272.3603C2991.0655,-270.1998 2997.9707,-268.0278 3004.5345,-266 3155.3833,-219.3968 3328.5478,-168.2746 3448.6449,-133.194"/>
<polygon fill="#000000" stroke="#000000" points="3449.6656,-136.5422 3458.2838,-130.3797 3447.7036,-129.8228 3449.6656,-136.5422"/>
<text text-anchor="middle" x="3166.035" y="-270.5" font-family="Helvetica,sans-Serif" font-size="15.00" fill="#000000">p = 1&#45;p_spont_cryptococcus</text>
</g>
</g>
</svg>

