<?xml version="1.0" encoding="UTF-8" standalone="no"?>
<!DOCTYPE svg PUBLIC "-//W3C//DTD SVG 1.1//EN"
 "http://www.w3.org/Graphics/SVG/1.1/DTD/svg11.dtd">
<!-- Generated by graphviz version 2.40.1 (20161225.0304)
 -->
<!-- Title: crag Pages: 1 -->
<svg width="1834pt" height="1362pt"
 viewBox="0.00 0.00 1833.74 1362.00" xmlns="http://www.w3.org/2000/svg" xmlns:xlink="http://www.w3.org/1999/xlink">
<g id="graph0" class="graph" transform="scale(1 1) rotate(0) translate(4 1358)">
<title>crag</title>
<polygon fill="#ffffff" stroke="transparent" points="-4,4 -4,-1358 1829.739,-1358 1829.739,4 -4,4"/>
<!-- start -->
<g id="node1" class="node">
<title>start</title>
<polygon fill="none" stroke="#000000" points="122,-813 0,-813 0,-741 122,-741 122,-813"/>
<text text-anchor="middle" x="61" y="-790.05" font-family="Helvetica,sans-Serif" font-size="14.50" fill="#000000">Potential</text>
<text text-anchor="middle" x="61" y="-772.65" font-family="Helvetica,sans-Serif" font-size="14.50" fill="#000000">donors</text>
<text text-anchor="middle" x="61" y="-755.25" font-family="Helvetica,sans-Serif" font-size="14.50" fill="#000000">N = 702</text>
</g>
<!-- no_screen -->
<g id="node2" class="node">
<title>no_screen</title>
<polygon fill="#98fb98" stroke="#000000" points="281,-877 159,-877 159,-805 281,-805 281,-877"/>
<text text-anchor="middle" x="220" y="-854.05" font-family="Helvetica,sans-Serif" font-size="14.50" fill="#000000">No CrAg</text>
<text text-anchor="middle" x="220" y="-836.65" font-family="Helvetica,sans-Serif" font-size="14.50" fill="#000000">screening</text>
<text text-anchor="middle" x="220" y="-819.25" font-family="Helvetica,sans-Serif" font-size="14.50" fill="#000000">Cost = $0</text>
</g>
<!-- start&#45;&gt;no_screen -->
<g id="edge1" class="edge">
<title>start&#45;&gt;no_screen</title>
<path fill="none" stroke="#000000" d="M122.0188,-801.561C130.9885,-805.1715 140.2905,-808.9157 149.4328,-812.5956"/>
<polygon fill="#000000" stroke="#000000" points="148.2981,-815.9117 158.8818,-816.3989 150.912,-809.418 148.2981,-815.9117"/>
</g>
<!-- screen -->
<g id="node3" class="node">
<title>screen</title>
<polygon fill="#98fb98" stroke="#000000" points="281,-754 159,-754 159,-682 281,-682 281,-754"/>
<text text-anchor="middle" x="220" y="-731.05" font-family="Helvetica,sans-Serif" font-size="14.50" fill="#000000">CrAg</text>
<text text-anchor="middle" x="220" y="-713.65" font-family="Helvetica,sans-Serif" font-size="14.50" fill="#000000">screening</text>
<text text-anchor="middle" x="220" y="-696.25" font-family="Helvetica,sans-Serif" font-size="14.50" fill="#000000">Cost = $2</text>
</g>
<!-- start&#45;&gt;screen -->
<g id="edge2" class="edge">
<title>start&#45;&gt;screen</title>
<path fill="none" stroke="#000000" d="M122.0188,-754.3578C130.9885,-751.0294 140.2905,-747.5777 149.4328,-744.1853"/>
<polygon fill="#000000" stroke="#000000" points="150.724,-747.4394 158.8818,-740.6791 148.2888,-740.8767 150.724,-747.4394"/>
</g>
<!-- used_ns -->
<g id="node4" class="node">
<title>used_ns</title>
<ellipse fill="#ffffe0" stroke="#000000" cx="422.118" cy="-962" rx="50.5" ry="50.5"/>
<text text-anchor="middle" x="422.118" y="-966.35" font-family="Helvetica,sans-Serif" font-size="14.50" fill="#000000">Organs</text>
<text text-anchor="middle" x="422.118" y="-948.95" font-family="Helvetica,sans-Serif" font-size="14.50" fill="#000000">used</text>
</g>
<!-- no_screen&#45;&gt;used_ns -->
<g id="edge3" class="edge">
<title>no_screen&#45;&gt;used_ns</title>
<path fill="none" stroke="#000000" d="M280.3683,-877.1401C308.9183,-894.2318 342.6697,-914.4375 370.0751,-930.844"/>
<polygon fill="#000000" stroke="#000000" points="368.3575,-933.895 378.7354,-936.0285 371.9531,-927.889 368.3575,-933.895"/>
<text text-anchor="middle" x="326.309" y="-924.5" font-family="Helvetica,sans-Serif" font-size="15.00" fill="#000000">p = 0.43</text>
</g>
<!-- notused_ns -->
<g id="node5" class="node">
<title>notused_ns</title>
<ellipse fill="#ffffe0" stroke="#000000" cx="422.118" cy="-841" rx="50.5" ry="50.5"/>
<text text-anchor="middle" x="422.118" y="-854.05" font-family="Helvetica,sans-Serif" font-size="14.50" fill="#000000">Organs</text>
<text text-anchor="middle" x="422.118" y="-836.65" font-family="Helvetica,sans-Serif" font-size="14.50" fill="#000000">not</text>
<text text-anchor="middle" x="422.118" y="-819.25" font-family="Helvetica,sans-Serif" font-size="14.50" fill="#000000">used</text>
</g>
<!-- no_screen&#45;&gt;notused_ns -->
<g id="edge4" class="edge">
<title>no_screen&#45;&gt;notused_ns</title>
<path fill="none" stroke="#000000" d="M281.1906,-841C306.516,-841 335.8198,-841 361.1245,-841"/>
<polygon fill="#000000" stroke="#000000" points="361.3353,-844.5001 371.3352,-841 361.3352,-837.5001 361.3353,-844.5001"/>
<text text-anchor="middle" x="326.309" y="-845.5" font-family="Helvetica,sans-Serif" font-size="15.00" fill="#000000">p = 0.57</text>
</g>
<!-- used_s -->
<g id="node6" class="node">
<title>used_s</title>
<ellipse fill="#ffffe0" stroke="#000000" cx="422.118" cy="-718" rx="50.5" ry="50.5"/>
<text text-anchor="middle" x="422.118" y="-722.35" font-family="Helvetica,sans-Serif" font-size="14.50" fill="#000000">Organs</text>
<text text-anchor="middle" x="422.118" y="-704.95" font-family="Helvetica,sans-Serif" font-size="14.50" fill="#000000">used</text>
</g>
<!-- screen&#45;&gt;used_s -->
<g id="edge11" class="edge">
<title>screen&#45;&gt;used_s</title>
<path fill="none" stroke="#000000" d="M281.1906,-718C306.516,-718 335.8198,-718 361.1245,-718"/>
<polygon fill="#000000" stroke="#000000" points="361.3353,-721.5001 371.3352,-718 361.3352,-714.5001 361.3353,-721.5001"/>
<text text-anchor="middle" x="326.309" y="-722.5" font-family="Helvetica,sans-Serif" font-size="15.00" fill="#000000">p = 0.43</text>
</g>
<!-- notused_s -->
<g id="node7" class="node">
<title>notused_s</title>
<ellipse fill="#ffffe0" stroke="#000000" cx="422.118" cy="-599" rx="50.5" ry="50.5"/>
<text text-anchor="middle" x="422.118" y="-612.05" font-family="Helvetica,sans-Serif" font-size="14.50" fill="#000000">Organs</text>
<text text-anchor="middle" x="422.118" y="-594.65" font-family="Helvetica,sans-Serif" font-size="14.50" fill="#000000">not</text>
<text text-anchor="middle" x="422.118" y="-577.25" font-family="Helvetica,sans-Serif" font-size="14.50" fill="#000000">used</text>
</g>
<!-- screen&#45;&gt;notused_s -->
<g id="edge12" class="edge">
<title>screen&#45;&gt;notused_s</title>
<path fill="none" stroke="#000000" d="M281.1906,-681.9731C309.3754,-665.3789 342.4874,-645.8837 369.5311,-629.9613"/>
<polygon fill="#000000" stroke="#000000" points="371.6123,-632.7976 378.4539,-624.7079 368.0608,-626.7655 371.6123,-632.7976"/>
<text text-anchor="middle" x="326.309" y="-674.5" font-family="Helvetica,sans-Serif" font-size="15.00" fill="#000000">p = 0.57</text>
</g>
<!-- donor_pos_ns -->
<g id="node8" class="node">
<title>donor_pos_ns</title>
<ellipse fill="#ffffe0" stroke="#000000" cx="622.0745" cy="-1174" rx="50.5" ry="50.5"/>
<text text-anchor="middle" x="622.0745" y="-1187.05" font-family="Helvetica,sans-Serif" font-size="14.50" fill="#000000">Donor</text>
<text text-anchor="middle" x="622.0745" y="-1169.65" font-family="Helvetica,sans-Serif" font-size="14.50" fill="#000000">with</text>
<text text-anchor="middle" x="622.0745" y="-1152.25" font-family="Helvetica,sans-Serif" font-size="14.50" fill="#000000">cryptococcus</text>
</g>
<!-- used_ns&#45;&gt;donor_pos_ns -->
<g id="edge5" class="edge">
<title>used_ns&#45;&gt;donor_pos_ns</title>
<path fill="none" stroke="#000000" d="M456.9478,-998.9276C491.2498,-1035.2956 543.6739,-1090.8773 580.2213,-1129.6259"/>
<polygon fill="#000000" stroke="#000000" points="577.9014,-1132.2673 587.309,-1137.1405 582.9937,-1127.4643 577.9014,-1132.2673"/>
<text text-anchor="middle" x="522.0963" y="-1103.5" font-family="Helvetica,sans-Serif" font-size="15.00" fill="#000000">p = 0.001</text>
</g>
<!-- donor_neg_ns -->
<g id="node9" class="node">
<title>donor_neg_ns</title>
<ellipse fill="#ffffe0" stroke="#000000" cx="622.0745" cy="-962" rx="50.5" ry="50.5"/>
<text text-anchor="middle" x="622.0745" y="-975.05" font-family="Helvetica,sans-Serif" font-size="14.50" fill="#000000">Donor</text>
<text text-anchor="middle" x="622.0745" y="-957.65" font-family="Helvetica,sans-Serif" font-size="14.50" fill="#000000">without</text>
<text text-anchor="middle" x="622.0745" y="-940.25" font-family="Helvetica,sans-Serif" font-size="14.50" fill="#000000">cryptococcus</text>
</g>
<!-- used_ns&#45;&gt;donor_neg_ns -->
<g id="edge6" class="edge">
<title>used_ns&#45;&gt;donor_neg_ns</title>
<path fill="none" stroke="#000000" d="M472.834,-962C499.7291,-962 532.9652,-962 561.2407,-962"/>
<polygon fill="#000000" stroke="#000000" points="561.4126,-965.5001 571.4126,-962 561.4126,-958.5001 561.4126,-965.5001"/>
<text text-anchor="middle" x="522.0963" y="-966.5" font-family="Helvetica,sans-Serif" font-size="15.00" fill="#000000">p = 0.999</text>
</g>
<!-- donor_pos_s -->
<g id="node10" class="node">
<title>donor_pos_s</title>
<ellipse fill="#ffffe0" stroke="#000000" cx="622.0745" cy="-718" rx="50.5" ry="50.5"/>
<text text-anchor="middle" x="622.0745" y="-731.05" font-family="Helvetica,sans-Serif" font-size="14.50" fill="#000000">Donor</text>
<text text-anchor="middle" x="622.0745" y="-713.65" font-family="Helvetica,sans-Serif" font-size="14.50" fill="#000000">with</text>
<text text-anchor="middle" x="622.0745" y="-696.25" font-family="Helvetica,sans-Serif" font-size="14.50" fill="#000000">cryptococcus</text>
</g>
<!-- used_s&#45;&gt;donor_pos_s -->
<g id="edge13" class="edge">
<title>used_s&#45;&gt;donor_pos_s</title>
<path fill="none" stroke="#000000" d="M472.834,-718C499.7291,-718 532.9652,-718 561.2407,-718"/>
<polygon fill="#000000" stroke="#000000" points="561.4126,-721.5001 571.4126,-718 561.4126,-714.5001 561.4126,-721.5001"/>
<text text-anchor="middle" x="522.0963" y="-722.5" font-family="Helvetica,sans-Serif" font-size="15.00" fill="#000000">p = 0.001</text>
</g>
<!-- donor_neg_s -->
<g id="node11" class="node">
<title>donor_neg_s</title>
<ellipse fill="#ffffe0" stroke="#000000" cx="622.0745" cy="-375" rx="50.5" ry="50.5"/>
<text text-anchor="middle" x="622.0745" y="-388.05" font-family="Helvetica,sans-Serif" font-size="14.50" fill="#000000">Donor</text>
<text text-anchor="middle" x="622.0745" y="-370.65" font-family="Helvetica,sans-Serif" font-size="14.50" fill="#000000">without</text>
<text text-anchor="middle" x="622.0745" y="-353.25" font-family="Helvetica,sans-Serif" font-size="14.50" fill="#000000">cryptococcus</text>
</g>
<!-- used_s&#45;&gt;donor_neg_s -->
<g id="edge14" class="edge">
<title>used_s&#45;&gt;donor_neg_s</title>
<path fill="none" stroke="#000000" d="M455.9831,-680.2241C461.8097,-673.0511 467.5979,-665.453 472.618,-658 523.1488,-582.9798 569.8503,-488.9334 597.1594,-430.3945"/>
<polygon fill="#000000" stroke="#000000" points="600.3392,-431.8568 601.3734,-421.3126 593.9895,-428.9105 600.3392,-431.8568"/>
<text text-anchor="middle" x="522.0963" y="-633.5" font-family="Helvetica,sans-Serif" font-size="15.00" fill="#000000">p = 0.999</text>
</g>
<!-- inf_yes_agpos_ns -->
<g id="node12" class="node">
<title>inf_yes_agpos_ns</title>
<polygon fill="#ffe4e1" stroke="#000000" points="879.531,-1354 771.531,-1300 879.531,-1246 987.531,-1300 879.531,-1354"/>
<text text-anchor="middle" x="879.531" y="-1313.05" font-family="Helvetica,sans-Serif" font-size="14.50" fill="#000000">Recipient</text>
<text text-anchor="middle" x="879.531" y="-1295.65" font-family="Helvetica,sans-Serif" font-size="14.50" fill="#000000">cryptococcosis</text>
<text text-anchor="middle" x="879.531" y="-1278.25" font-family="Helvetica,sans-Serif" font-size="14.50" fill="#000000">Cost = $110945</text>
</g>
<!-- donor_pos_ns&#45;&gt;inf_yes_agpos_ns -->
<g id="edge7" class="edge">
<title>donor_pos_ns&#45;&gt;inf_yes_agpos_ns</title>
<path fill="none" stroke="#000000" d="M667.5099,-1196.2362C708.6516,-1216.3711 769.6855,-1246.2413 815.7183,-1268.7699"/>
<polygon fill="#000000" stroke="#000000" points="814.1939,-1271.9204 824.7145,-1273.1726 817.271,-1265.633 814.1939,-1271.9204"/>
<text text-anchor="middle" x="722.0528" y="-1241.5" font-family="Helvetica,sans-Serif" font-size="15.00" fill="#000000">p = 0.867</text>
</g>
<!-- inf_no_agpos_ns -->
<g id="node14" class="node">
<title>inf_no_agpos_ns</title>
<polygon fill="none" stroke="#000000" points="879.531,-1228 771.531,-1174 879.531,-1120 987.531,-1174 879.531,-1228"/>
<text text-anchor="middle" x="879.531" y="-1187.05" font-family="Helvetica,sans-Serif" font-size="14.50" fill="#000000">No</text>
<text text-anchor="middle" x="879.531" y="-1169.65" font-family="Helvetica,sans-Serif" font-size="14.50" fill="#000000">cryptococcus</text>
<text text-anchor="middle" x="879.531" y="-1152.25" font-family="Helvetica,sans-Serif" font-size="14.50" fill="#000000">Cost = $&#45;10</text>
</g>
<!-- donor_pos_ns&#45;&gt;inf_no_agpos_ns -->
<g id="edge8" class="edge">
<title>donor_pos_ns&#45;&gt;inf_no_agpos_ns</title>
<path fill="none" stroke="#000000" d="M672.6324,-1174C698.0695,-1174 730.0605,-1174 761.2308,-1174"/>
<polygon fill="#000000" stroke="#000000" points="761.3128,-1177.5001 771.3128,-1174 761.3127,-1170.5001 761.3128,-1177.5001"/>
<text text-anchor="middle" x="722.0528" y="-1178.5" font-family="Helvetica,sans-Serif" font-size="15.00" fill="#000000">p = 0.133</text>
</g>
<!-- inf_yes_agneg_ns -->
<g id="node13" class="node">
<title>inf_yes_agneg_ns</title>
<polygon fill="#ffe4e1" stroke="#000000" points="879.531,-1102 771.531,-1048 879.531,-994 987.531,-1048 879.531,-1102"/>
<text text-anchor="middle" x="879.531" y="-1061.05" font-family="Helvetica,sans-Serif" font-size="14.50" fill="#000000">Recipient</text>
<text text-anchor="middle" x="879.531" y="-1043.65" font-family="Helvetica,sans-Serif" font-size="14.50" fill="#000000">cryptococcosis</text>
<text text-anchor="middle" x="879.531" y="-1026.25" font-family="Helvetica,sans-Serif" font-size="14.50" fill="#000000">Cost = $110945</text>
</g>
<!-- donor_neg_ns&#45;&gt;inf_yes_agneg_ns -->
<g id="edge10" class="edge">
<title>donor_neg_ns&#45;&gt;inf_yes_agneg_ns</title>
<path fill="none" stroke="#000000" d="M670.1981,-978.0751C708.0844,-990.7305 761.5574,-1008.5924 804.9745,-1023.0954"/>
<polygon fill="#000000" stroke="#000000" points="804.048,-1026.4759 814.6418,-1026.3246 806.2659,-1019.8366 804.048,-1026.4759"/>
<text text-anchor="middle" x="722.0528" y="-1009.5" font-family="Helvetica,sans-Serif" font-size="15.00" fill="#000000">p = 0.005</text>
</g>
<!-- inf_no_agneg_ns -->
<g id="node15" class="node">
<title>inf_no_agneg_ns</title>
<polygon fill="none" stroke="#000000" points="879.531,-976 771.531,-922 879.531,-868 987.531,-922 879.531,-976"/>
<text text-anchor="middle" x="879.531" y="-935.05" font-family="Helvetica,sans-Serif" font-size="14.50" fill="#000000">No</text>
<text text-anchor="middle" x="879.531" y="-917.65" font-family="Helvetica,sans-Serif" font-size="14.50" fill="#000000">cryptococcus</text>
<text text-anchor="middle" x="879.531" y="-900.25" font-family="Helvetica,sans-Serif" font-size="14.50" fill="#000000">Cost = $&#45;10</text>
</g>
<!-- donor_neg_ns&#45;&gt;inf_no_agneg_ns -->
<g id="edge9" class="edge">
<title>donor_neg_ns&#45;&gt;inf_no_agneg_ns</title>
<path fill="none" stroke="#000000" d="M672.02,-954.2402C704.5719,-949.1827 748.0445,-942.4285 786.7883,-936.4091"/>
<polygon fill="#000000" stroke="#000000" points="787.7063,-939.8085 797.0504,-934.8147 786.6316,-932.8915 787.7063,-939.8085"/>
<text text-anchor="middle" x="722.0528" y="-956.5" font-family="Helvetica,sans-Serif" font-size="15.00" fill="#000000">p = 0.995</text>
</g>
<!-- ag_truepos_s -->
<g id="node16" class="node">
<title>ag_truepos_s</title>
<ellipse fill="#ffffe0" stroke="#000000" cx="879.531" cy="-799" rx="50.5" ry="50.5"/>
<text text-anchor="middle" x="879.531" y="-803.35" font-family="Helvetica,sans-Serif" font-size="14.50" fill="#000000">Donor</text>
<text text-anchor="middle" x="879.531" y="-785.95" font-family="Helvetica,sans-Serif" font-size="14.50" fill="#000000">CrAg+</text>
</g>
<!-- donor_pos_s&#45;&gt;ag_truepos_s -->
<g id="edge15" class="edge">
<title>donor_pos_s&#45;&gt;ag_truepos_s</title>
<path fill="none" stroke="#000000" d="M670.5001,-733.2355C713.3827,-746.727 776.0607,-766.4466 821.5916,-780.7713"/>
<polygon fill="#000000" stroke="#000000" points="820.7331,-784.1703 831.3225,-783.8328 822.8339,-777.493 820.7331,-784.1703"/>
<text text-anchor="middle" x="722.0528" y="-763.5" font-family="Helvetica,sans-Serif" font-size="15.00" fill="#000000">p = 0.901</text>
</g>
<!-- ag_falseneg_s -->
<g id="node17" class="node">
<title>ag_falseneg_s</title>
<ellipse fill="#ffffe0" stroke="#000000" cx="879.531" cy="-678" rx="50.5" ry="50.5"/>
<text text-anchor="middle" x="879.531" y="-682.35" font-family="Helvetica,sans-Serif" font-size="14.50" fill="#000000">Donor</text>
<text text-anchor="middle" x="879.531" y="-664.95" font-family="Helvetica,sans-Serif" font-size="14.50" fill="#000000">CrAg&#45;</text>
</g>
<!-- donor_pos_s&#45;&gt;ag_falseneg_s -->
<g id="edge16" class="edge">
<title>donor_pos_s&#45;&gt;ag_falseneg_s</title>
<path fill="none" stroke="#000000" d="M672.02,-710.2402C714.0754,-703.7062 774.359,-694.3402 819.1233,-687.3853"/>
<polygon fill="#000000" stroke="#000000" points="819.9415,-690.8003 829.2856,-685.8064 818.8668,-683.8832 819.9415,-690.8003"/>
<text text-anchor="middle" x="722.0528" y="-712.5" font-family="Helvetica,sans-Serif" font-size="15.00" fill="#000000">p = 0.099</text>
</g>
<!-- ag_falsepos_s -->
<g id="node18" class="node">
<title>ag_falsepos_s</title>
<ellipse fill="#ffffe0" stroke="#000000" cx="879.531" cy="-375" rx="50.5" ry="50.5"/>
<text text-anchor="middle" x="879.531" y="-379.35" font-family="Helvetica,sans-Serif" font-size="14.50" fill="#000000">Donor</text>
<text text-anchor="middle" x="879.531" y="-361.95" font-family="Helvetica,sans-Serif" font-size="14.50" fill="#000000">CrAg+</text>
</g>
<!-- donor_neg_s&#45;&gt;ag_falsepos_s -->
<g id="edge22" class="edge">
<title>donor_neg_s&#45;&gt;ag_falsepos_s</title>
<path fill="none" stroke="#000000" d="M672.6324,-375C714.477,-375 774.0571,-375 818.5435,-375"/>
<polygon fill="#000000" stroke="#000000" points="818.6491,-378.5001 828.6491,-375 818.649,-371.5001 818.6491,-378.5001"/>
<text text-anchor="middle" x="722.0528" y="-379.5" font-family="Helvetica,sans-Serif" font-size="15.00" fill="#000000">p = 0.02</text>
</g>
<!-- ag_trueneg_s -->
<g id="node19" class="node">
<title>ag_trueneg_s</title>
<ellipse fill="#ffffe0" stroke="#000000" cx="879.531" cy="-180" rx="50.5" ry="50.5"/>
<text text-anchor="middle" x="879.531" y="-184.35" font-family="Helvetica,sans-Serif" font-size="14.50" fill="#000000">Donor</text>
<text text-anchor="middle" x="879.531" y="-166.95" font-family="Helvetica,sans-Serif" font-size="14.50" fill="#000000">CrAg&#45;</text>
</g>
<!-- donor_neg_s&#45;&gt;ag_trueneg_s -->
<g id="edge21" class="edge">
<title>donor_neg_s&#45;&gt;ag_trueneg_s</title>
<path fill="none" stroke="#000000" d="M662.5853,-344.3167C708.2329,-309.7428 782.3962,-253.5708 831.0745,-216.7014"/>
<polygon fill="#000000" stroke="#000000" points="833.3981,-219.3321 839.2565,-210.5043 829.1717,-213.752 833.3981,-219.3321"/>
<text text-anchor="middle" x="722.0528" y="-327.5" font-family="Helvetica,sans-Serif" font-size="15.00" fill="#000000">p = 0.98</text>
</g>
<!-- transplant_cancelled_ag_truepos_s -->
<g id="node20" class="node">
<title>transplant_cancelled_ag_truepos_s</title>
<polygon fill="#add8e6" stroke="#000000" points="1194.4875,-978 1086.4875,-924 1194.4875,-870 1302.4875,-924 1194.4875,-978"/>
<text text-anchor="middle" x="1194.4875" y="-937.05" font-family="Helvetica,sans-Serif" font-size="14.50" fill="#000000">Transplant</text>
<text text-anchor="middle" x="1194.4875" y="-919.65" font-family="Helvetica,sans-Serif" font-size="14.50" fill="#000000">cancelled</text>
<text text-anchor="middle" x="1194.4875" y="-902.25" font-family="Helvetica,sans-Serif" font-size="14.50" fill="#000000">Cost = $0</text>
</g>
<!-- ag_truepos_s&#45;&gt;transplant_cancelled_ag_truepos_s -->
<g id="edge17" class="edge">
<title>ag_truepos_s&#45;&gt;transplant_cancelled_ag_truepos_s</title>
<path fill="none" stroke="#000000" d="M926.6832,-817.7138C979.1343,-838.5306 1064.4001,-872.3709 1124.6097,-896.2669"/>
<polygon fill="#000000" stroke="#000000" points="1123.4631,-899.5774 1134.049,-900.0132 1126.0454,-893.071 1123.4631,-899.5774"/>
<text text-anchor="middle" x="1037.0093" y="-877.5" font-family="Helvetica,sans-Serif" font-size="15.00" fill="#000000">p = 0.8</text>
</g>
<!-- transplant_notcancelled_ag_truepos_s -->
<g id="node21" class="node">
<title>transplant_notcancelled_ag_truepos_s</title>
<ellipse fill="#ffffe0" stroke="#000000" cx="1194.4875" cy="-801" rx="50.5" ry="50.5"/>
<text text-anchor="middle" x="1194.4875" y="-814.05" font-family="Helvetica,sans-Serif" font-size="14.50" fill="#000000">Transplant</text>
<text text-anchor="middle" x="1194.4875" y="-796.65" font-family="Helvetica,sans-Serif" font-size="14.50" fill="#000000">not</text>
<text text-anchor="middle" x="1194.4875" y="-779.25" font-family="Helvetica,sans-Serif" font-size="14.50" fill="#000000">cancelled</text>
</g>
<!-- ag_truepos_s&#45;&gt;transplant_notcancelled_ag_truepos_s -->
<g id="edge18" class="edge">
<title>ag_truepos_s&#45;&gt;transplant_notcancelled_ag_truepos_s</title>
<path fill="none" stroke="#000000" d="M930.1342,-799.3213C985.4975,-799.6729 1074.2287,-800.2363 1133.4203,-800.6122"/>
<polygon fill="#000000" stroke="#000000" points="1133.727,-804.1141 1143.749,-800.6778 1133.7715,-797.1143 1133.727,-804.1141"/>
<text text-anchor="middle" x="1037.0093" y="-805.5" font-family="Helvetica,sans-Serif" font-size="15.00" fill="#000000">p = 0.2</text>
</g>
<!-- inf_y_ag_falseneg_s -->
<g id="node36" class="node">
<title>inf_y_ag_falseneg_s</title>
<polygon fill="#ffe4e1" stroke="#000000" points="1194.4875,-732 1086.4875,-678 1194.4875,-624 1302.4875,-678 1194.4875,-732"/>
<text text-anchor="middle" x="1194.4875" y="-691.05" font-family="Helvetica,sans-Serif" font-size="14.50" fill="#000000">Recipient</text>
<text text-anchor="middle" x="1194.4875" y="-673.65" font-family="Helvetica,sans-Serif" font-size="14.50" fill="#000000">cryptococcosis</text>
<text text-anchor="middle" x="1194.4875" y="-656.25" font-family="Helvetica,sans-Serif" font-size="14.50" fill="#000000">Cost = $110945</text>
</g>
<!-- ag_falseneg_s&#45;&gt;inf_y_ag_falseneg_s -->
<g id="edge31" class="edge">
<title>ag_falseneg_s&#45;&gt;inf_y_ag_falseneg_s</title>
<path fill="none" stroke="#000000" d="M930.1342,-678C969.5036,-678 1025.7466,-678 1076.2418,-678"/>
<polygon fill="#000000" stroke="#000000" points="1076.2575,-681.5001 1086.2575,-678 1076.2574,-674.5001 1076.2575,-681.5001"/>
<text text-anchor="middle" x="1037.0093" y="-682.5" font-family="Helvetica,sans-Serif" font-size="15.00" fill="#000000">p = 0.867</text>
</g>
<!-- inf_n_ag_falseneg_s -->
<g id="node37" class="node">
<title>inf_n_ag_falseneg_s</title>
<polygon fill="none" stroke="#000000" points="1194.4875,-606 1086.4875,-552 1194.4875,-498 1302.4875,-552 1194.4875,-606"/>
<text text-anchor="middle" x="1194.4875" y="-565.05" font-family="Helvetica,sans-Serif" font-size="14.50" fill="#000000">No</text>
<text text-anchor="middle" x="1194.4875" y="-547.65" font-family="Helvetica,sans-Serif" font-size="14.50" fill="#000000">cryptococcus</text>
<text text-anchor="middle" x="1194.4875" y="-530.25" font-family="Helvetica,sans-Serif" font-size="14.50" fill="#000000">Cost = $&#45;10</text>
</g>
<!-- ag_falseneg_s&#45;&gt;inf_n_ag_falseneg_s -->
<g id="edge32" class="edge">
<title>ag_falseneg_s&#45;&gt;inf_n_ag_falseneg_s</title>
<path fill="none" stroke="#000000" d="M926.6832,-659.1365C979.2157,-638.1206 1064.665,-603.9362 1124.89,-579.8428"/>
<polygon fill="#000000" stroke="#000000" points="1126.3458,-583.0302 1134.3303,-576.0662 1123.7457,-576.531 1126.3458,-583.0302"/>
<text text-anchor="middle" x="1037.0093" y="-631.5" font-family="Helvetica,sans-Serif" font-size="15.00" fill="#000000">p = 0.133</text>
</g>
<!-- transplant_cancelled_ag_falsepos_s -->
<g id="node22" class="node">
<title>transplant_cancelled_ag_falsepos_s</title>
<polygon fill="#add8e6" stroke="#000000" points="1194.4875,-480 1086.4875,-426 1194.4875,-372 1302.4875,-426 1194.4875,-480"/>
<text text-anchor="middle" x="1194.4875" y="-439.05" font-family="Helvetica,sans-Serif" font-size="14.50" fill="#000000">Transplant</text>
<text text-anchor="middle" x="1194.4875" y="-421.65" font-family="Helvetica,sans-Serif" font-size="14.50" fill="#000000">cancelled</text>
<text text-anchor="middle" x="1194.4875" y="-404.25" font-family="Helvetica,sans-Serif" font-size="14.50" fill="#000000">Cost = $0</text>
</g>
<!-- ag_falsepos_s&#45;&gt;transplant_cancelled_ag_falsepos_s -->
<g id="edge23" class="edge">
<title>ag_falsepos_s&#45;&gt;transplant_cancelled_ag_falsepos_s</title>
<path fill="none" stroke="#000000" d="M929.4368,-383.0811C975.8261,-390.5928 1046.0712,-401.9674 1102.5928,-411.1197"/>
<polygon fill="#000000" stroke="#000000" points="1102.1862,-414.5994 1112.6171,-412.743 1103.3052,-407.6894 1102.1862,-414.5994"/>
<text text-anchor="middle" x="1037.0093" y="-410.5" font-family="Helvetica,sans-Serif" font-size="15.00" fill="#000000">p = 0.8</text>
</g>
<!-- transplant_notcancelled_ag_falsepos_s -->
<g id="node23" class="node">
<title>transplant_notcancelled_ag_falsepos_s</title>
<ellipse fill="#ffffe0" stroke="#000000" cx="1194.4875" cy="-303" rx="50.5" ry="50.5"/>
<text text-anchor="middle" x="1194.4875" y="-316.05" font-family="Helvetica,sans-Serif" font-size="14.50" fill="#000000">Transplant</text>
<text text-anchor="middle" x="1194.4875" y="-298.65" font-family="Helvetica,sans-Serif" font-size="14.50" fill="#000000">not</text>
<text text-anchor="middle" x="1194.4875" y="-281.25" font-family="Helvetica,sans-Serif" font-size="14.50" fill="#000000">cancelled</text>
</g>
<!-- ag_falsepos_s&#45;&gt;transplant_notcancelled_ag_falsepos_s -->
<g id="edge24" class="edge">
<title>ag_falsepos_s&#45;&gt;transplant_notcancelled_ag_falsepos_s</title>
<path fill="none" stroke="#000000" d="M929.0894,-363.6708C984.9319,-350.905 1075.6587,-330.1646 1135.2088,-316.5513"/>
<polygon fill="#000000" stroke="#000000" points="1136.2496,-319.9037 1145.2181,-314.2631 1134.6896,-313.0798 1136.2496,-319.9037"/>
<text text-anchor="middle" x="1037.0093" y="-350.5" font-family="Helvetica,sans-Serif" font-size="15.00" fill="#000000">p = 0.2</text>
</g>
<!-- inf_y_ag_trueneg_s -->
<g id="node38" class="node">
<title>inf_y_ag_trueneg_s</title>
<polygon fill="#ffe4e1" stroke="#000000" points="1194.4875,-234 1086.4875,-180 1194.4875,-126 1302.4875,-180 1194.4875,-234"/>
<text text-anchor="middle" x="1194.4875" y="-193.05" font-family="Helvetica,sans-Serif" font-size="14.50" fill="#000000">Recipient</text>
<text text-anchor="middle" x="1194.4875" y="-175.65" font-family="Helvetica,sans-Serif" font-size="14.50" fill="#000000">cryptococcosis</text>
<text text-anchor="middle" x="1194.4875" y="-158.25" font-family="Helvetica,sans-Serif" font-size="14.50" fill="#000000">Cost = $110945</text>
</g>
<!-- ag_trueneg_s&#45;&gt;inf_y_ag_trueneg_s -->
<g id="edge33" class="edge">
<title>ag_trueneg_s&#45;&gt;inf_y_ag_trueneg_s</title>
<path fill="none" stroke="#000000" d="M930.1342,-180C969.5036,-180 1025.7466,-180 1076.2418,-180"/>
<polygon fill="#000000" stroke="#000000" points="1076.2575,-183.5001 1086.2575,-180 1076.2574,-176.5001 1076.2575,-183.5001"/>
<text text-anchor="middle" x="1037.0093" y="-184.5" font-family="Helvetica,sans-Serif" font-size="15.00" fill="#000000">p = 0.005</text>
</g>
<!-- inf_n_ag_trueneg_s -->
<g id="node39" class="node">
<title>inf_n_ag_trueneg_s</title>
<polygon fill="none" stroke="#000000" points="1194.4875,-108 1086.4875,-54 1194.4875,0 1302.4875,-54 1194.4875,-108"/>
<text text-anchor="middle" x="1194.4875" y="-67.05" font-family="Helvetica,sans-Serif" font-size="14.50" fill="#000000">No</text>
<text text-anchor="middle" x="1194.4875" y="-49.65" font-family="Helvetica,sans-Serif" font-size="14.50" fill="#000000">cryptococcus</text>
<text text-anchor="middle" x="1194.4875" y="-32.25" font-family="Helvetica,sans-Serif" font-size="14.50" fill="#000000">Cost = $&#45;10</text>
</g>
<!-- ag_trueneg_s&#45;&gt;inf_n_ag_trueneg_s -->
<g id="edge34" class="edge">
<title>ag_trueneg_s&#45;&gt;inf_n_ag_trueneg_s</title>
<path fill="none" stroke="#000000" d="M926.6832,-161.1365C979.2157,-140.1206 1064.665,-105.9362 1124.89,-81.8428"/>
<polygon fill="#000000" stroke="#000000" points="1126.3458,-85.0302 1134.3303,-78.0662 1123.7457,-78.531 1126.3458,-85.0302"/>
<text text-anchor="middle" x="1037.0093" y="-133.5" font-family="Helvetica,sans-Serif" font-size="15.00" fill="#000000">p = 0.995</text>
</g>
<!-- proph_yes_transplant_notcancelled_ag_truepos_s -->
<g id="node24" class="node">
<title>proph_yes_transplant_notcancelled_ag_truepos_s</title>
<ellipse fill="#ffffe0" stroke="#000000" cx="1443.6055" cy="-855" rx="50.5" ry="50.5"/>
<text text-anchor="middle" x="1443.6055" y="-868.05" font-family="Helvetica,sans-Serif" font-size="14.50" fill="#000000">Fluconazole</text>
<text text-anchor="middle" x="1443.6055" y="-850.65" font-family="Helvetica,sans-Serif" font-size="14.50" fill="#000000">prophylaxis</text>
<text text-anchor="middle" x="1443.6055" y="-833.25" font-family="Helvetica,sans-Serif" font-size="14.50" fill="#000000">Cost = $6660</text>
</g>
<!-- transplant_notcancelled_ag_truepos_s&#45;&gt;proph_yes_transplant_notcancelled_ag_truepos_s -->
<g id="edge19" class="edge">
<title>transplant_notcancelled_ag_truepos_s&#45;&gt;proph_yes_transplant_notcancelled_ag_truepos_s</title>
<path fill="none" stroke="#000000" d="M1244.003,-811.7332C1284.3318,-820.4751 1341.3932,-832.844 1384.1835,-842.1194"/>
<polygon fill="#000000" stroke="#000000" points="1383.6692,-845.5891 1394.1837,-844.2871 1385.1521,-838.748 1383.6692,-845.5891"/>
<text text-anchor="middle" x="1347.7965" y="-844.5" font-family="Helvetica,sans-Serif" font-size="15.00" fill="#000000">p = 0.51</text>
</g>
<!-- proph_no_transplant_notcancelled_ag_truepos_s -->
<g id="node25" class="node">
<title>proph_no_transplant_notcancelled_ag_truepos_s</title>
<ellipse fill="#ffffe0" stroke="#000000" cx="1443.6055" cy="-729" rx="50.5" ry="50.5"/>
<text text-anchor="middle" x="1443.6055" y="-733.35" font-family="Helvetica,sans-Serif" font-size="14.50" fill="#000000">No</text>
<text text-anchor="middle" x="1443.6055" y="-715.95" font-family="Helvetica,sans-Serif" font-size="14.50" fill="#000000">prophylaxis</text>
</g>
<!-- transplant_notcancelled_ag_truepos_s&#45;&gt;proph_no_transplant_notcancelled_ag_truepos_s -->
<g id="edge20" class="edge">
<title>transplant_notcancelled_ag_truepos_s&#45;&gt;proph_no_transplant_notcancelled_ag_truepos_s</title>
<path fill="none" stroke="#000000" d="M1243.1113,-786.9468C1283.7031,-775.2149 1341.693,-758.4547 1384.8734,-745.9747"/>
<polygon fill="#000000" stroke="#000000" points="1386.0442,-749.2797 1394.6792,-743.1407 1384.1006,-742.5549 1386.0442,-749.2797"/>
<text text-anchor="middle" x="1347.7965" y="-767.5" font-family="Helvetica,sans-Serif" font-size="15.00" fill="#000000">p = 0.49</text>
</g>
<!-- proph_yes_transplant_notcancelled_ag_falsepos_s -->
<g id="node26" class="node">
<title>proph_yes_transplant_notcancelled_ag_falsepos_s</title>
<ellipse fill="#ffffe0" stroke="#000000" cx="1443.6055" cy="-331" rx="50.5" ry="50.5"/>
<text text-anchor="middle" x="1443.6055" y="-344.05" font-family="Helvetica,sans-Serif" font-size="14.50" fill="#000000">Fluconazole</text>
<text text-anchor="middle" x="1443.6055" y="-326.65" font-family="Helvetica,sans-Serif" font-size="14.50" fill="#000000">prophylaxis</text>
<text text-anchor="middle" x="1443.6055" y="-309.25" font-family="Helvetica,sans-Serif" font-size="14.50" fill="#000000">Cost = $6660</text>
</g>
<!-- transplant_notcancelled_ag_falsepos_s&#45;&gt;proph_yes_transplant_notcancelled_ag_falsepos_s -->
<g id="edge25" class="edge">
<title>transplant_notcancelled_ag_falsepos_s&#45;&gt;proph_yes_transplant_notcancelled_ag_falsepos_s</title>
<path fill="none" stroke="#000000" d="M1244.9002,-308.6662C1284.8289,-313.1541 1340.7399,-319.4383 1383.0863,-324.1978"/>
<polygon fill="#000000" stroke="#000000" points="1382.9393,-327.7033 1393.2677,-325.3422 1383.7213,-320.7471 1382.9393,-327.7033"/>
<text text-anchor="middle" x="1347.7965" y="-327.5" font-family="Helvetica,sans-Serif" font-size="15.00" fill="#000000">p = 0.51</text>
</g>
<!-- proph_no_transplant_notcancelled_ag_falsepos_s -->
<g id="node27" class="node">
<title>proph_no_transplant_notcancelled_ag_falsepos_s</title>
<ellipse fill="#ffffe0" stroke="#000000" cx="1443.6055" cy="-205" rx="50.5" ry="50.5"/>
<text text-anchor="middle" x="1443.6055" y="-209.35" font-family="Helvetica,sans-Serif" font-size="14.50" fill="#000000">No</text>
<text text-anchor="middle" x="1443.6055" y="-191.95" font-family="Helvetica,sans-Serif" font-size="14.50" fill="#000000">prophylaxis</text>
</g>
<!-- transplant_notcancelled_ag_falsepos_s&#45;&gt;proph_no_transplant_notcancelled_ag_falsepos_s -->
<g id="edge26" class="edge">
<title>transplant_notcancelled_ag_falsepos_s&#45;&gt;proph_no_transplant_notcancelled_ag_falsepos_s</title>
<path fill="none" stroke="#000000" d="M1241.6376,-284.4517C1282.9021,-268.2188 1342.9454,-244.5985 1386.8378,-227.3317"/>
<polygon fill="#000000" stroke="#000000" points="1388.2005,-230.5568 1396.225,-223.6389 1385.6379,-224.0427 1388.2005,-230.5568"/>
<text text-anchor="middle" x="1347.7965" y="-256.5" font-family="Helvetica,sans-Serif" font-size="15.00" fill="#000000">p = 0.49</text>
</g>
<!-- inf_y_proph_yes_transplant_notcancelled_ag_truepos_s -->
<g id="node28" class="node">
<title>inf_y_proph_yes_transplant_notcancelled_ag_truepos_s</title>
<polygon fill="#ffe4e1" stroke="#000000" points="1717.739,-1035 1609.739,-981 1717.739,-927 1825.739,-981 1717.739,-1035"/>
<text text-anchor="middle" x="1717.739" y="-994.05" font-family="Helvetica,sans-Serif" font-size="14.50" fill="#000000">Recipient</text>
<text text-anchor="middle" x="1717.739" y="-976.65" font-family="Helvetica,sans-Serif" font-size="14.50" fill="#000000">cryptococcosis</text>
<text text-anchor="middle" x="1717.739" y="-959.25" font-family="Helvetica,sans-Serif" font-size="14.50" fill="#000000">Cost = $110945</text>
</g>
<!-- proph_yes_transplant_notcancelled_ag_truepos_s&#45;&gt;inf_y_proph_yes_transplant_notcancelled_ag_truepos_s -->
<g id="edge27" class="edge">
<title>proph_yes_transplant_notcancelled_ag_truepos_s&#45;&gt;inf_y_proph_yes_transplant_notcancelled_ag_truepos_s</title>
<path fill="none" stroke="#000000" d="M1489.7985,-876.2317C1534.3297,-896.6996 1602.1518,-927.8727 1652.2458,-950.8974"/>
<polygon fill="#000000" stroke="#000000" points="1650.8357,-954.1012 1661.3836,-955.0973 1653.7591,-947.7408 1650.8357,-954.1012"/>
<text text-anchor="middle" x="1551.9223" y="-926.5" font-family="Helvetica,sans-Serif" font-size="15.00" fill="#000000">p = 0.10404</text>
</g>
<!-- inf_n_proph_yes_transplant_notcancelled_ag_truepos_s -->
<g id="node29" class="node">
<title>inf_n_proph_yes_transplant_notcancelled_ag_truepos_s</title>
<polygon fill="none" stroke="#000000" points="1717.739,-909 1609.739,-855 1717.739,-801 1825.739,-855 1717.739,-909"/>
<text text-anchor="middle" x="1717.739" y="-868.05" font-family="Helvetica,sans-Serif" font-size="14.50" fill="#000000">No</text>
<text text-anchor="middle" x="1717.739" y="-850.65" font-family="Helvetica,sans-Serif" font-size="14.50" fill="#000000">cryptococcosis</text>
<text text-anchor="middle" x="1717.739" y="-833.25" font-family="Helvetica,sans-Serif" font-size="14.50" fill="#000000">Cost = $&#45;10</text>
</g>
<!-- proph_yes_transplant_notcancelled_ag_truepos_s&#45;&gt;inf_n_proph_yes_transplant_notcancelled_ag_truepos_s -->
<g id="edge28" class="edge">
<title>proph_yes_transplant_notcancelled_ag_truepos_s&#45;&gt;inf_n_proph_yes_transplant_notcancelled_ag_truepos_s</title>
<path fill="none" stroke="#000000" d="M1494.2053,-855C1523.7601,-855 1562.3803,-855 1599.1863,-855"/>
<polygon fill="#000000" stroke="#000000" points="1599.5103,-858.5001 1609.5103,-855 1599.5102,-851.5001 1599.5103,-858.5001"/>
<text text-anchor="middle" x="1551.9223" y="-859.5" font-family="Helvetica,sans-Serif" font-size="15.00" fill="#000000">p = 0.89596</text>
</g>
<!-- inf_y_proph_no_transplant_notcancelled_ag_truepos_s -->
<g id="node30" class="node">
<title>inf_y_proph_no_transplant_notcancelled_ag_truepos_s</title>
<polygon fill="#ffe4e1" stroke="#000000" points="1717.739,-783 1609.739,-729 1717.739,-675 1825.739,-729 1717.739,-783"/>
<text text-anchor="middle" x="1717.739" y="-742.05" font-family="Helvetica,sans-Serif" font-size="14.50" fill="#000000">Recipient</text>
<text text-anchor="middle" x="1717.739" y="-724.65" font-family="Helvetica,sans-Serif" font-size="14.50" fill="#000000">cryptococcosis</text>
<text text-anchor="middle" x="1717.739" y="-707.25" font-family="Helvetica,sans-Serif" font-size="14.50" fill="#000000">Cost = $110945</text>
</g>
<!-- proph_no_transplant_notcancelled_ag_truepos_s&#45;&gt;inf_y_proph_no_transplant_notcancelled_ag_truepos_s -->
<g id="edge29" class="edge">
<title>proph_no_transplant_notcancelled_ag_truepos_s&#45;&gt;inf_y_proph_no_transplant_notcancelled_ag_truepos_s</title>
<path fill="none" stroke="#000000" d="M1494.2053,-729C1523.7601,-729 1562.3803,-729 1599.1863,-729"/>
<polygon fill="#000000" stroke="#000000" points="1599.5103,-732.5001 1609.5103,-729 1599.5102,-725.5001 1599.5103,-732.5001"/>
<text text-anchor="middle" x="1551.9223" y="-733.5" font-family="Helvetica,sans-Serif" font-size="15.00" fill="#000000">p = 0.867</text>
</g>
<!-- inf_n_proph_no_transplant_notcancelled_ag_truepos_s -->
<g id="node31" class="node">
<title>inf_n_proph_no_transplant_notcancelled_ag_truepos_s</title>
<polygon fill="none" stroke="#000000" points="1717.739,-657 1609.739,-603 1717.739,-549 1825.739,-603 1717.739,-657"/>
<text text-anchor="middle" x="1717.739" y="-616.05" font-family="Helvetica,sans-Serif" font-size="14.50" fill="#000000">No</text>
<text text-anchor="middle" x="1717.739" y="-598.65" font-family="Helvetica,sans-Serif" font-size="14.50" fill="#000000">cryptococcosis</text>
<text text-anchor="middle" x="1717.739" y="-581.25" font-family="Helvetica,sans-Serif" font-size="14.50" fill="#000000">Cost = $&#45;10</text>
</g>
<!-- proph_no_transplant_notcancelled_ag_truepos_s&#45;&gt;inf_n_proph_no_transplant_notcancelled_ag_truepos_s -->
<g id="edge30" class="edge">
<title>proph_no_transplant_notcancelled_ag_truepos_s&#45;&gt;inf_n_proph_no_transplant_notcancelled_ag_truepos_s</title>
<path fill="none" stroke="#000000" d="M1489.7985,-707.7683C1534.3297,-687.3004 1602.1518,-656.1273 1652.2458,-633.1026"/>
<polygon fill="#000000" stroke="#000000" points="1653.7591,-636.2592 1661.3836,-628.9027 1650.8357,-629.8988 1653.7591,-636.2592"/>
<text text-anchor="middle" x="1551.9223" y="-700.5" font-family="Helvetica,sans-Serif" font-size="15.00" fill="#000000">p = 0.133</text>
</g>
<!-- inf_y_proph_yes_transplant_notcancelled_ag_falsepos_s -->
<g id="node32" class="node">
<title>inf_y_proph_yes_transplant_notcancelled_ag_falsepos_s</title>
<polygon fill="#ffe4e1" stroke="#000000" points="1717.739,-511 1609.739,-457 1717.739,-403 1825.739,-457 1717.739,-511"/>
<text text-anchor="middle" x="1717.739" y="-470.05" font-family="Helvetica,sans-Serif" font-size="14.50" fill="#000000">Recipient</text>
<text text-anchor="middle" x="1717.739" y="-452.65" font-family="Helvetica,sans-Serif" font-size="14.50" fill="#000000">cryptococcosis</text>
<text text-anchor="middle" x="1717.739" y="-435.25" font-family="Helvetica,sans-Serif" font-size="14.50" fill="#000000">Cost = $110945</text>
</g>
<!-- proph_yes_transplant_notcancelled_ag_falsepos_s&#45;&gt;inf_y_proph_yes_transplant_notcancelled_ag_falsepos_s -->
<g id="edge35" class="edge">
<title>proph_yes_transplant_notcancelled_ag_falsepos_s&#45;&gt;inf_y_proph_yes_transplant_notcancelled_ag_falsepos_s</title>
<path fill="none" stroke="#000000" d="M1489.7985,-352.2317C1534.3297,-372.6996 1602.1518,-403.8727 1652.2458,-426.8974"/>
<polygon fill="#000000" stroke="#000000" points="1650.8357,-430.1012 1661.3836,-431.0973 1653.7591,-423.7408 1650.8357,-430.1012"/>
<text text-anchor="middle" x="1551.9223" y="-402.5" font-family="Helvetica,sans-Serif" font-size="15.00" fill="#000000">p = 6e&#45;04</text>
</g>
<!-- inf_n_proph_yes_transplant_notcancelled_ag_falsepos_s -->
<g id="node33" class="node">
<title>inf_n_proph_yes_transplant_notcancelled_ag_falsepos_s</title>
<polygon fill="none" stroke="#000000" points="1717.739,-385 1609.739,-331 1717.739,-277 1825.739,-331 1717.739,-385"/>
<text text-anchor="middle" x="1717.739" y="-344.05" font-family="Helvetica,sans-Serif" font-size="14.50" fill="#000000">No</text>
<text text-anchor="middle" x="1717.739" y="-326.65" font-family="Helvetica,sans-Serif" font-size="14.50" fill="#000000">cryptococcus</text>
<text text-anchor="middle" x="1717.739" y="-309.25" font-family="Helvetica,sans-Serif" font-size="14.50" fill="#000000">Cost = $&#45;10</text>
</g>
<!-- proph_yes_transplant_notcancelled_ag_falsepos_s&#45;&gt;inf_n_proph_yes_transplant_notcancelled_ag_falsepos_s -->
<g id="edge36" class="edge">
<title>proph_yes_transplant_notcancelled_ag_falsepos_s&#45;&gt;inf_n_proph_yes_transplant_notcancelled_ag_falsepos_s</title>
<path fill="none" stroke="#000000" d="M1494.2053,-331C1523.7601,-331 1562.3803,-331 1599.1863,-331"/>
<polygon fill="#000000" stroke="#000000" points="1599.5103,-334.5001 1609.5103,-331 1599.5102,-327.5001 1599.5103,-334.5001"/>
<text text-anchor="middle" x="1551.9223" y="-335.5" font-family="Helvetica,sans-Serif" font-size="15.00" fill="#000000">p = 0.9994</text>
</g>
<!-- inf_y_proph_no_transplant_notcancelled_ag_falsepos_s -->
<g id="node34" class="node">
<title>inf_y_proph_no_transplant_notcancelled_ag_falsepos_s</title>
<polygon fill="#ffe4e1" stroke="#000000" points="1717.739,-259 1609.739,-205 1717.739,-151 1825.739,-205 1717.739,-259"/>
<text text-anchor="middle" x="1717.739" y="-218.05" font-family="Helvetica,sans-Serif" font-size="14.50" fill="#000000">Recipient</text>
<text text-anchor="middle" x="1717.739" y="-200.65" font-family="Helvetica,sans-Serif" font-size="14.50" fill="#000000">cryptococcosis</text>
<text text-anchor="middle" x="1717.739" y="-183.25" font-family="Helvetica,sans-Serif" font-size="14.50" fill="#000000">Cost = $110945</text>
</g>
<!-- proph_no_transplant_notcancelled_ag_falsepos_s&#45;&gt;inf_y_proph_no_transplant_notcancelled_ag_falsepos_s -->
<g id="edge37" class="edge">
<title>proph_no_transplant_notcancelled_ag_falsepos_s&#45;&gt;inf_y_proph_no_transplant_notcancelled_ag_falsepos_s</title>
<path fill="none" stroke="#000000" d="M1494.2053,-205C1523.7601,-205 1562.3803,-205 1599.1863,-205"/>
<polygon fill="#000000" stroke="#000000" points="1599.5103,-208.5001 1609.5103,-205 1599.5102,-201.5001 1599.5103,-208.5001"/>
<text text-anchor="middle" x="1551.9223" y="-209.5" font-family="Helvetica,sans-Serif" font-size="15.00" fill="#000000">p = 0.005</text>
</g>
<!-- inf_n_proph_no_transplant_notcancelled_ag_falsepos_s -->
<g id="node35" class="node">
<title>inf_n_proph_no_transplant_notcancelled_ag_falsepos_s</title>
<polygon fill="none" stroke="#000000" points="1717.739,-133 1609.739,-79 1717.739,-25 1825.739,-79 1717.739,-133"/>
<text text-anchor="middle" x="1717.739" y="-92.05" font-family="Helvetica,sans-Serif" font-size="14.50" fill="#000000">No</text>
<text text-anchor="middle" x="1717.739" y="-74.65" font-family="Helvetica,sans-Serif" font-size="14.50" fill="#000000">cryptococcus</text>
<text text-anchor="middle" x="1717.739" y="-57.25" font-family="Helvetica,sans-Serif" font-size="14.50" fill="#000000">Cost = $&#45;10</text>
</g>
<!-- proph_no_transplant_notcancelled_ag_falsepos_s&#45;&gt;inf_n_proph_no_transplant_notcancelled_ag_falsepos_s -->
<g id="edge38" class="edge">
<title>proph_no_transplant_notcancelled_ag_falsepos_s&#45;&gt;inf_n_proph_no_transplant_notcancelled_ag_falsepos_s</title>
<path fill="none" stroke="#000000" d="M1489.7985,-183.7683C1534.3297,-163.3004 1602.1518,-132.1273 1652.2458,-109.1026"/>
<polygon fill="#000000" stroke="#000000" points="1653.7591,-112.2592 1661.3836,-104.9027 1650.8357,-105.8988 1653.7591,-112.2592"/>
<text text-anchor="middle" x="1551.9223" y="-176.5" font-family="Helvetica,sans-Serif" font-size="15.00" fill="#000000">p = 0.995</text>
</g>
</g>
</svg>

